<svg xmlns="http://www.w3.org/2000/svg" width="190" height="310">
  <defs />
  <path fill="#333"
    d="M87 63c-10 0-20 1-28 4-9 2-19 6-30 12L12 32c11-7 23-12 38-16s29-6 43-6c18 0 32 3 44 7 11 5 20 11 27 18 6 7 11 15 14 24 2 8 4 16 4 24s-2 15-4 21a88 88 0 01-21 34 659 659 0 01-34 37l-7 13c-2 4-3 9-3 14v10H59l-1-9-1-9a70 70 0 0111-38 307 307 0 0124-29l17-19c5-6 8-13 8-21 0-7-3-12-8-17s-12-7-22-7zm38 208c0 12-4 22-12 28-7 7-16 10-26 10s-19-3-27-10c-8-6-12-16-12-28s4-21 12-28 17-10 27-10 19 3 26 10c8 7 12 16 12 28z"
    style="white-space:pre" />
  <path fill="none"
    d="M87 63c-10 0-19 2-28 4L29 79 11 32l1-1c10-6 23-12 38-16 14-3 29-5 43-5 18 0 32 2 44 7 11 5 20 11 27 18s11 15 14 24c3 8 4 16 4 24s-1 15-4 22a88 88 0 01-21 34 663 663 0 01-34 36l-7 13c-2 4-3 9-3 14v5l1 5v1H58v-1l-1-9v-9a71 71 0 0110-38l11-16 13-13 18-19c5-6 7-13 7-21 0-7-2-12-7-17-5-4-12-7-22-7zm23 7c5 4 7 10 7 17 0 8-2 15-8 22a302 302 0 01-30 32 97 97 0 00-18 32c-2 7-3 13-3 21a235 235 0 001 18h54l-1-5v-5l3-15 8-13 9-12a807 807 0 0124-24l13-16 9-18c2-6 3-13 3-21s-1-16-4-24c-3-9-7-16-14-24-6-7-15-13-27-17-11-5-25-7-43-7-14 0-28 2-43 5-15 4-27 9-38 16l17 46 29-12c9-2 19-4 29-4s17 3 23 8zm16 201c0 12-4 22-12 29a41 41 0 01-54 0c-8-7-12-17-12-29s4-22 12-28a41 41 0 0154 0c8 6 12 16 12 28zm-13-28c-8-6-16-10-26-10s-19 4-27 10c-7 7-11 16-11 28s4 21 11 28c8 6 17 10 27 10s18-4 26-10c8-7 12-16 12-28s-4-21-12-28z" />
  </svg>