<?xml version="1.0" encoding="UTF-8"?>
<svg viewBox="0 0 1346 743" xmlns="http://www.w3.org/2000/svg">
 <g fill-rule="evenodd" stroke-width=".5">
  <g fill="#fff" stroke="#fff">
   <path d="m0 371.5v-371.5h895l0.2 1q0.3 1 0.6 1.5l0.2 0.5-0.5 0.2q-0.5 0.3-2 0.8t-5.7 3.8q-4.3 3.2-5.8 6.2t-6.8 6.8q-5.2 3.7-10 11.4-4.7 7.8-5.2 14.3t1 13.5 3.5 11 2.3 6l0.2 2 0.2 2q0.3 2 2 4.8 1.8 2.7 2.6 5 0.7 2.2-8.8 20.7t-10.2 19q-0.8 0.5-4.3 8.5l-3.5 8h-0.2q-0.3 0-16.6 26.5l-16.2 26.5-0.5 0.2q-0.5 0.3-9 12l-8.5 11.8-0.5 0.2q-0.5 0.3-0.5 0.6v1.2l-0.5 0.2q-0.5 0.3-1.5 1.6l-1 1.2-0.5 0.2q-0.5 0.3-0.5 0.6v0.2l-0.5 0.2q-0.5 0.3-0.5 0.6v0.2l-0.5 0.2q-0.5 0.3-0.5 0.6v0.2l-0.5 0.2q-0.5 0.3-4.7 5.6-4.3 5.2-19.8 20.7t-25 22.5-21 13l-11.5 6-0.3-0.2q-0.2-0.3-1.2-1l-1-0.8-0.2-0.5q-0.3-0.5-4.8-10.5t-5-15 0.2-5.8q0.8-0.7 3-5 2.3-4.2 5.8-8.2t5.5-8 2.5-11-1-11.5-5.2-9.3q-3.8-4.7-12-10-8.3-5.2-11-5.4-2.8-0.3-11.3 2.2t-13.7 6.8q-5.3 4.2-7.8 9.2t-3 14 0.5 12 4.3 7.2q3.2 4.3 4.4 8 1.3 3.8 3.3 6.3t2.5 5.5-5.2 16.8l-5.8 13.7-0.2 0.3-0.3 0.2-0.3 1-0.2 1-0.5 0.2q-0.5 0.3-0.7 0.6-0.3 0.2-5.6-0.6l-5.2-0.7-2.5-0.3-2.5-0.2-0.2-0.5q-0.3-0.5-0.6-0.5h-0.2l-0.5-0.2q-0.5-0.3-17.5-11.8t-29-23.5-28.5-32-18-22.7q-1.5-2.8-2.5-2.8t-2.5-4-2.5-4.2q-1-0.3-1.5-2-0.5-1.8-1.5-2-1-0.3-1.2-1.6-0.3-1.2-1.3-2.7t-2-3-1.7-2q-0.8-0.5-0.8-2t-1-1.5-0.8-1q0.3-1-1-1.5-1.2-0.5-1.4-2.5-0.3-2-22.3-43t-22.3-43.5l-0.2-2.5h0.2q0.3 0 0.6-0.2 0.2-0.3 2.2-6.3t4.8-13.3q2.7-7.2 3.2-15.7t-0.5-12-5.5-10.5-9.8-10q-5.2-3-5.4-5.5-0.3-2.5-6.6-6.7-6.2-4.3-13.2-4.8t-10 0.5-7.8 6.7q-4.7 5.8-4.7 10.3t-4.5 11.5-5 17.5 1.2 10.7q1.8 0.3 4.6 5 2.7 4.8 1.4 7.6-1.2 2.7 7.3 10.4l8.5 7.8 0.2 1 0.3 1 0.3 0.2 0.2 0.3 0.2 0.3 0.3 0.2 2 1.5q2 1.5-2 31t-10 55.5-8 32-2.3 7.5l-0.2 1.5h-0.5l-0.5 1.5-0.5 1.5-0.5 1.5-0.5 1.5-0.5 1-0.5 1-6 15q-6 15-13.7 28.2-7.8 13.3-15.6 22.6-7.7 9.2-13.2 13.7t-5.8 4.7l-0.2 0.3-1 0.3-1 0.2-0.2-0.5q-0.3-0.5-0.6-0.5h-0.2l-0.2-0.5-0.3-0.5-0.3-0.2-0.2-0.3-0.2-0.3-0.3-0.2-0.5-1q-0.5-1-19-25.5t-25.2-34.5q-6.8-10-8.8-10t-2-1v-1l2.2-3q2.3-3 2.3-8t1.5-8.5 1-13-5.8-16.3q-5.2-6.7-12.2-10.2t-14.5-6.5-14-2.5-10.7 3.8q-4.3 3.2-5.3 5.2t-1 7-2 9-2.5 8.5 2.5 13.5 9.3 15.2q6.2 6.3 9.7 7.6 3.5 1.2 5 3.4 1.5 2.3 4.5 3.6 3 1.2 4.8 12.7 1.7 11.5 2.2 16.5l0.5 5 0.3 3.5 0.2 3.5v0.5h-2l-0.2-0.3-0.3-0.2-0.3-0.2-0.2-0.3-0.2-0.3-0.3-0.2-0.3-0.2-0.2-0.3-0.2-0.3-0.3-0.2-0.5-1-0.5-1-0.3-0.2-0.2-0.3-0.2-0.3-0.3-0.2-0.3-0.2q-0.2-0.3-0.4-0.6-0.3-0.2-15-17-14.8-16.7-61.6-77.4-46.7-60.8-46-67.8 0.8-7-0.2-6.8-1 0.3-1.5-1-0.5-1.2-2-1.2t-1.5-5.5v-5.5l-1 0.2q-1 0.3-6-0.2t-6.5 1-8 2-11.7-5.2q-5.3-5.8-9-6-3.8-0.3-7.3 5-3.5 5.2-4.5 5.4l-1 0.3-0.2 0.3-0.3 0.2-0.3 0.2-0.2 0.3-0.2 0.3-0.3 0.2v3l0.5 1 0.5 1 0.3 0.2 0.2 0.3 0.2 0.3 0.3 0.2 0.3 0.2 0.2 0.3 0.2 0.3 0.3 0.2 6.7 2.8q6.8 2.7 10.3 3.2t4.5 1l1 0.5 1.5 0.5 1.5 0.5 0.2 0.3 0.3 0.2-0.3 3.8q-0.2 3.7-0.7 4l-0.5 0.2h-0.2q-0.3 0-0.6 0.5l-0.2 0.5-1 0.2q-1 0.3-2.2 1l-1.3 0.8v3l0.3 0.2 0.2 0.3 0.2 0.3 0.3 0.2 0.3 0.2 0.2 0.3 0.2 0.3 0.3 0.2 0.3 0.2 0.2 0.3 4.8 1.7q4.7 1.8 12.7 23.8t8.3 22.5l0.2 0.5 8.2 30.5q8.3 30.5 12.8 56t5 29.5l0.5 4v6l-0.3-0.2-0.2-0.3-0.2-0.3-0.3-0.2-0.3-0.2-0.2-0.3-0.2-0.3-0.3-0.2-0.3-0.2-0.2-0.3-0.2-0.3-0.3-0.2-0.3-0.2-0.2-0.3-0.2-0.3-0.3-0.2-0.5-1-0.5-1-0.3-0.2-0.2-0.3-0.2-0.3-0.3-0.2-0.5-1q-0.5-1-10-15.5l-9.5-14.5-0.3-0.2-0.2-0.3v-0.5l-0.2-0.5-0.3-0.5-0.3-0.2-0.2-0.3-0.2-0.3-0.3-0.2-0.5-1q-0.5-1-6-6.5t-10-14-21-34-15.5-33.5-2.3-9.8q-3.2-1.7-4.4-5-1.3-3.2-3-3.4-1.8-0.3-2.8 0.7t-11 1.5-11.2-4.2q-1.3-4.8-2.3-5.8t-3.3-1.8l-2.2-0.7-0.2 0.3-0.3 0.2-0.3 0.2-0.2 0.3-3.5 0.3q-3.5 0.2-6.5 5.4-3 5.3-4.8 6.6-1.7 1.2-0.4 5 1.2 3.7 6 7.4 4.7 3.8 5 4.8 0.2 1 5.7 2.5t4.3 4.5q-1.3 3 3 6.2 4.2 3.3 10.2 4 6 0.8 23.8 30.8 17.7 30 31.7 57t14.3 27h0.2v0.5l0.2 0.3 0.3 0.2 8 18q8 18 15 35.5t11.5 24.5 6.8 8q2.2 1 9.4 29 7.3 28 8.6 36.5 1.2 8.5-2 10.5-3.3 2-3.6 2.5l-0.2 0.5-4.8 5q-4.7 5-7.2 10.5t-2 14 4 15.5 10.5 14 8 29.5-0.5 36-7.5 18.5-10 11-4 17.5 4.3 18.7q4.2 7.3 9.7 11.8t21.5 11 51.5 14 71 11.5 37 4 9-0.3l7.5-0.2 71 5.2q71 5.3 114 6.8t115.5 1.8l72.5 0.2v0.5l1.5 0.5 1.5 0.5-1 0.5-1 0.5 0.2 0.3 0.3 0.2 0.3 0.5 0.2 0.5h-748v-371.5zm76.2-187.3q0.3-0.2 0.6 0 0.2 0.3-0.3 0.3t-0.3-0.3z"/>
   <path d="m895.2 1l-0.2-1h451v743h-598l-0.2-0.5-0.3-0.5-0.3-0.2-0.2-0.3 1-0.5 1-0.5-1.5-0.5-1.5-0.5v-0.5l74.5-3.2q74.5-3.3 98-5.3t29-2.3l5.5-0.2 37-2.2q37-2.3 74-8.3t57-11 34.5-11.5 20.7-12.8q6.3-6.2 8.8-13.2t2-15.5-3.2-13.3q-2.8-4.7-10-11-7.3-6.2-8.8-19.7t-1-31.5 1.8-24.2q1.2-6.3 7.4-11.6 6.3-5.2 9.3-11.2t3.3-16.8q0.2-10.7 0.2-11v-0.2l-0.2-1q-0.3-1-0.8-2.5t-4-6.5-10.2-10.2q-6.8-5.3-6-12 0.7-6.8 8.2-35.3t9.8-30.3q2.2-1.7 6.4-8 4.3-6.2 13.3-28.7t16.3-38l7.2-15.5h0.5l17.7-32.2q17.8-32.3 32.3-55 14.5-22.8 20.7-24.3 6.3-1.5 8.3-3.5t2.3-6l0.2-4 2-0.2 2-0.3 0.2-0.3 0.3-0.2 0.3-0.2 0.2-0.3 0.2-0.3 0.3-0.2 0.3-0.2 0.2-0.3 0.2-0.3 0.3-0.2 0.3-0.2 0.2-0.3h-2.5q-2.5 0-4.5 0.5l-2 0.5-1 0.3-1 0.2v-2l1-0.2 1-0.3 2.5-0.7q2.5-0.8 2.7-1.8 0.3-1 0.6-1.2l0.2-0.3 0.2-0.3 0.3-0.2v-3l-0.3-0.2q-0.2-0.3-2.2-2.3t-7.5-6.5-7.3-2.8q-1.7 1.8-6.4 2l-4.8 0.3-0.2-0.3-0.3-0.2-0.3 0.2-0.2 0.3-0.2 0.3-0.3 0.2-0.5 2.5-0.5 2.5 0.3 1.8q0.2 1.7 2.2 2.7t3 1.5l1 0.5 0.2 0.3 0.3 0.2 0.3 0.2 0.2 0.3h-3l-0.2-0.3-0.3-0.2-0.3 0.2-0.2 0.3-1 0.5-1 0.5h-1.5q-1.5 0-3.5-0.7-2-0.8-2.2 1.7-0.3 2.5-1.6 2-1.2-0.5-1.4 3.5-0.3 4-7.8 14.5t-21.2 35l-13.8 24.5-0.5 0.2q-0.5 0.3-2 1-1.5 0.8-1.7 1.8-0.3 1-2.6 2.2-2.2 1.3-16.4 23l-14.3 21.8-0.5 1-0.5 1-0.3 0.2-0.2 0.3-0.2 0.3-0.3 0.2-0.5 1-0.5 1-0.3 0.2-0.2 0.3-0.2 0.3-0.3 0.2-0.3 0.2-0.2 0.3-0.2 0.3-0.3 0.2-0.3-2-0.2-2 3.2-24.5q3.3-24.5 10.8-55.5t17.5-60.5 10.7-32q0.8-2.5-0.2-2.7-1-0.3 5-1.8t7.5-1.8l1.5-0.2v-2q0-2-1-2h-1l-0.2-0.5q-0.3-0.5-0.6-1.5l-0.2-1 3.5-0.2q3.5-0.3 8-1.8t10.5-6.5 9.2-10.7q3.3-5.8 3.8-14.3t-2.8-17.5q-3.2-9-5.2-10.2-2-1.3 0.5-2.3t2.7-4.7q0.3-3.8-4-8-4.2-4.3-9.7-4.8t-12 2.2q-6.5 2.8-6.5 4.3t-8.5 3.7q-8.5 2.3-15 8.3t-9.3 12.3q-2.7 6.2-1.4 18.4 1.2 12.3 0.7 15-0.5 2.8-1.5 2.8t-0.5 1l0.5 1 0.2 1q0.3 1 0.3 5.5t-35.5 51-58.8 74.7l-23.2 28.3-0.2 0.3-0.3 0.2-0.3 0.2-0.2 0.3-0.2 0.3-0.3 0.2-0.3 0.2-0.2 0.3-0.2 0.3-0.3 0.2-0.3 0.2-0.2 0.3-0.2 0.3-0.3 0.2-0.3 0.2-0.2 0.3-0.2 0.3-0.3 0.2-0.3 0.2-0.2 0.3-1 0.3-1 0.2 0.2-4 0.3-4 2.3-13q2.2-13 6-15.5 3.7-2.5 4-3.5 0.2-1 6.7-4.8 6.5-3.7 10.3-9 3.7-5.2 1.7-6.2t-2-5.5v-4.5l0.3-0.2 0.2-0.3 0.2-0.3 0.3-0.2 0.3-0.2 0.2-0.3 0.2-0.3 0.3-0.2 0.3 1q0.2 1 1.7 1t1.7 2l0.3 2 0.5-1 0.5-1v-6q0-6-2-11t-2-8-1.5-8-4.8-7.2q-3.2-2.3-10.2-2.8t-14.5 2.5-13.5 5.5-12.2 10.2q-6.3 7.8-6.8 15.8t1 13 1.5 9.5 2 8.5 1.3 4.8q-0.8 0.7-27.8 36.7l-27 36-0.2 0.3-0.3 0.2-0.5 1-0.5 1-0.3 0.2-0.2 0.3v0.5l-1.5-0.2q-1.5-0.3-2.5-0.8t-9-7-16.5-17-17.7-27.8q-9.3-17.2-18.8-45.7l-9.5-28.5-0.5-2q-0.5-2-0.8-2h-0.2l-0.2-2.5q-0.3-2.5-2.8-14t-7-42.5-1.8-34.5l2.8-3.5h0.2q0.3 0 6.6-6.2 6.2-6.3 11-14.6 4.7-8.2 5.2-16.7t-2.5-16-7-11.5-1.7-5q2.2-1 2-3-0.3-2-3-5.8-2.8-3.7-6.8-6.2t-11.5-2.8l-7.5-0.2-0.2-0.5q-0.3-0.5-0.6-1.5z"/>
  </g>
  <path d="m468.8 87l0.2 1 0.2 2.5q0.3 2.5 22.6 44.5 22.2 42 23.2 42t2 3 2 3 3.8 5.5q2.7 5.5 4.2 7.5t3.2 5.2q1.8 3.3 2.8 3.6 1 0.2 1 1.7t1.2 2.5q1.3 1 2.6 3.2 1.2 2.3 13 17 11.7 14.8 21 25 9.2 10.3 22.2 21.3t23.5 17.5 11 6.8l0.5 0.2v0.2q0 0.3 0.5 0.6l0.5 0.2 0.2 0.5q0.3 0.5 0.6 0.7l0.2 0.3 0.2 0.3 0.3 0.2 0.3 0.2 0.2 0.3 0.2 0.3 0.3 0.2 0.3 0.2 0.2 0.3 1.8 1.3q1.7 1.2 2.4 14.2 0.8 13 6.8 16.8 6 3.7 19.5 5.2t15.5 1.5 6-0.5l4-0.5 2-0.5 2-0.5h4v0.5l-0.5 0.2-0.5 0.3-2 0.5-2 0.5-1.5 0.5-1.5 0.5-2.5 0.5q-2.5 0.5-18 0.8l-15.5 0.2v-0.5l-1.5-0.5-1.5-0.5-1.5-0.5-1.5-0.5-14-6q-14-6-28.5-15t-18.5-10.5-7.8 0.8q-3.7 2.2-7.2 10.2t-9 33.5-5 36.5 3.2 16.8q2.8 5.7 7.8 7.4 5 1.8 5 2.8t9 2.2q9 1.3 14.5 1.8l5.5 0.5 0.2 0.3 0.3 0.2 0.3 0.2 0.2 0.3-1 0.3-1 0.2-0.2 1-0.3 1-0.3 0.2-0.2 0.3 1 0.5 1 0.5-0.2 0.3-0.3 0.2-0.3 0.2-0.2 0.3v0.5l-3.5 0.2q-3.5 0.3-24.5 1l-21 0.8-39 0.2q-39 0.3-53.5 0.8l-14.5 0.5-1.5-0.5-1.5-0.5-1.5-0.5-1.5-0.5-1-0.3-1-0.2v-0.5l4-1q4-1 4.2-1.3 0.3-0.2 0.6-0.4l0.2-0.3 0.2-0.3 0.3-0.2 0.3-0.2 0.2-0.3 0.2-0.3 0.3-0.2 0.5-1 0.5-1v-1.5q0-1.5-0.3-4-0.2-2.5-1.2-2.5t-11.2-16.5q-10.3-16.5-18-26-7.8-9.5-9.3-10.3-1.5-0.7-8-4-6.5-3.2-6.5-4.2t-2-1.8q-2-0.7-9.5-0.7t-12 1.5l-4.5 1.5-2.5 0.3-2.5 0.2 0.2-1 0.3-1 0.3-0.2 0.2-0.3 0.2-0.3 0.3-0.2 0.3-0.2 0.2-0.3 0.2-0.3 0.3-0.2 0.3-0.2 0.2-0.3-1-0.5-1-0.5 0.2-0.3 0.3-0.2 0.3-0.2 0.2-0.3 0.2-0.3 0.3-0.2 0.3-0.2 0.2-0.3 1-0.5q1-0.5 8-7t16-18 15.2-22.8q6.3-11.2 6.8-19.7t1.2-9.3q0.8-0.7 0.3-1.2t-0.5-6.2q0-5.8-1-5.8t-1.2-10q-0.3-10 0.2-14l0.5-4 0.5-1.5 0.5-1.5v-1l-0.3-2-0.2-2 0.2-1.5q0.3-1.5 2.3-7.5t8-32 10-55.5 2-31l-2-1.5-0.3-0.2-0.2-0.3-0.2-0.3-0.3-0.2-0.3-1-0.2-1 15-0.8q15-0.7 19-2.7t4.2-1.7q0.3 0.2 0.6 1.2z" fill="#724200" stroke="#724200"/>
  <path d="m633.8 471.5l1.2-1.5 73 0.8q73 0.7 121.5 3.2t51 2.8l2.5 0.2 2.8 8.5q2.7 8.5 4.7 26t2.7 39.3q0.8 21.7 0 22.4-0.7 0.8-0.4 1l0.2 0.3-2 0.5q-2 0.5-58 0.5h-56v0.5l-4-0.2q-4-0.3-39-1l-35-0.8v-0.2q0-0.3-40.5-1.6l-40.5-1.2v-0.5l-8-0.5-8-0.5-2.5-0.5-2.5-0.5 2-0.3 2-0.2-0.2-1-0.3-1-0.3-0.2-0.2-0.3 0.2-0.3 0.3-0.2 0.3-0.2 0.2-0.3 0.2-0.3q0.3-0.2 1.8-2.7t2.8-3.7q1.2-1.3 8-13.6 6.7-12.2 12.7-41.7t7.3-31z" fill="#fdfd9f" stroke="#fdfd9f"/>
  <path d="m844.8 147h0.2l-0.8 5q-0.7 5-1.2 9.5t0.8 10.5q1.2 6 2.2 6t0.8 1q-0.3 1-0.3 3.5v2.5l0.3-0.2 0.2-0.3 0.2-0.3 0.3-0.2 0.3-0.2 0.2-0.3 4-2q4-2 11-2t11.2 5.7q4.3 5.8 5 7.8 0.8 2 2 2.5 1.3 0.5 2 1.7 0.8 1.3 2.3 4 1.5 2.8 2.5 2.8t0.5 1.2q-0.5 1.3 0.5 1.6 1 0.2 3.8 6.2 2.7 6 3.2 5.5t1 0.5 1 2.5l0.5 1.5 0.3 0.2 0.2 0.3 0.2 0.3 0.3 0.2 0.5 1 0.5 1 0.5 1 0.5 1 0.3 0.2 0.2 0.3 0.5 0.3 0.5 0.2 10 27.2q10 27.3 20.5 45.3t20 29 16.5 18 16 10.5 12.5 4 9 0.5h5.5l2.5-0.5 2.5-0.5-0.2-0.3-0.3-0.2-0.3-0.2-0.2-0.3v-0.5l2.5 0.2 2.5 0.3 0.2 0.3 0.3 0.2 0.3-1 0.2-1 1.5-0.2 1.5-0.3-2-0.3q-2-0.2 2.5-15.7t3.5-15.7q-1-0.3 0-0.8l1-0.5 0.2-0.3 0.3-0.2 0.3-0.2 0.2-0.3 1-0.5 1-0.5-2.5-0.5-2.5-0.5 0.2-0.3 0.3-0.2 0.3-0.5 0.2-0.5 8.5-3.8q8.5-3.7 10.5-2.7t11.5-5.5 22-17.5 22.3-21.7q9.7-10.8 10-11l0.2-0.3 0.2-0.3 0.3-0.2 0.3-0.2 0.2-0.3 0.2-0.3 0.3-0.2 0.3-0.2 0.2-0.3 0.2-0.3 0.3-0.2 0.3-0.2 0.2-0.3 0.2-0.3 0.3-0.2 0.3-0.2 0.2-0.3 0.2-0.3 0.3-0.2 0.3-0.5 0.2-0.5v-0.5l0.5-0.3 0.5-0.2h0.5v2l-0.5 1-0.5 1-0.5 1-0.5 1-0.3 0.2-0.2 0.3-0.2 0.3-0.3 0.2-1.3 4q-1.2 4-0.2 4t0.8 2q-0.3 2-1 4-0.8 2 3.2 3.2 4 1.3 5.8 3 1.7 1.8 1.7 13.8t-1 15-4.7 28.8q-3.8 25.7-5.6 35.4-1.7 9.8-2.2 12.3l-0.5 2.5-0.3 0.2-0.2 0.3-0.2 0.3-0.3 0.2-0.5 2.5-0.5 2.5-0.5 1-0.5 1h-0.5l0.2-10q0.3-10 0.3-22.5t-2-18.5-4.3-9.8q-2.2-3.7-6.2-4.7t-8.5 1-8 5.7q-3.5 3.8-4.5 3.8t-6 7.8q-5 7.7-13.2 26-8.3 18.2-13.8 41.7t-4.2 24q1.2 0.5 1.4 2 0.3 1.5 2 2.7l1.8 1.3 1.5 0.3 1.5 0.2v2l-4.5-0.2q-4.5-0.3-62.5-5.8t-84-6l-26-0.5v0.5l-1.5-0.2q-1.5-0.3-21.5-2.3l-20-2-1.5-0.3-1.5-0.2v-0.5l2.5-0.5 2.5-0.5-0.2-0.3-0.3-0.2-0.3-0.2-0.2-0.3 16.5-0.5q16.5-0.5 18.7-1.2 2.3-0.8 5.3-4.3t3.5-8.5-1.8-47l-2.2-42h0.5l0.5-3.5 0.5-3.5 0.5-3.5 0.5-3.5 0.5-1 0.5-1 1 1.5q1 1.5 1.5 2.5l0.5 1 1.3-5.5q1.2-5.5 2.2-5.5t2-2.8q1-2.7 2-3 1-0.2 1.2 0.8 0.3 1 0.6-0.5 0.2-1.5 2.4-1.5 2.3 0 2.8 1l0.5 1 0.5-1q0.5-1 0.5-2.5t0-10-0.7-9.3q-0.8-0.7-1.6-8.4-0.7-7.8-4.7-16.8t-8.5-16-9.2-11q-4.8-4-5-5-0.3-1-6-4.8-5.8-3.7-11.3-4.2t-9.5 1-7 5l-3 3.5-0.2 0.3-0.3 0.2-0.3 0.2-0.2 0.3-0.2 0.3-0.3 0.2-0.3 1.5-0.2 1.5h-2l0.2-1.5 0.3-1.5v-1.5q0-1.5-0.5-4t-1.2-2.7q-0.8-0.3-2.8-2.3t-3.5-6.3l-1.5-4.2 16.2-26.5q16.3-26.5 16.6-26.5z" fill="#a47418" stroke="#a47418"/>
  <path d="m867 317l0.5 2 0.5 2.5 0.5 2.5 0.3 1 0.2 1 2.2 42q2.3 42 1.8 47t-3.5 8.5-5.3 4.3q-2.2 0.7-18.7 1.2l-16.5 0.5 0.2 0.3 0.3 0.2 0.3 0.2 0.2 0.3-2.5 0.5-2.5 0.5v0.5l-29-0.2q-29-0.3-53.5-1l-24.5-0.8h0.5l0.3-0.2 0.2-0.3 0.2-0.3 0.3-0.2 0.3-0.2 0.2-0.3-8-0.5q-8-0.5-37.5-1.5t-36.3-4.7q-6.7-3.8-7.2-14.3t1.5-31 3.7-24.7q1.8-4.3 9.3-5l7.5-0.8 15.5-0.2q15.5-0.3 18-0.8l2.5-0.5 1.5-0.5 1.5-0.5 2-0.5 2-0.5 0.5-0.3 0.5-0.2 13.5-5.8q13.5-5.7 14.5-6.2t1-0.8v-0.2h0.5l0.3-0.2 0.2-0.3 0.5-0.3 0.5-0.2h0.5l0.3-0.5 0.2-0.5h0.5l0.3-0.2 0.2-0.3 1-0.5 1-0.5 0.2-0.3 0.3-0.2 0.3-0.2 0.2-0.3 10.5-8q10.5-8 31.5-28t32.5-21 20.5 2 15.5 7 12.7 13.7q6.3 9.8 8.3 17.3t2.5 9.5z" fill="#fdfd91" stroke="#fdfd91"/>
  <path d="m899 178.5v-3.5l1.8 1q1.7 1 2.4 0.2 0.8-0.7 2.8 0 2 0.8 2.2 1.8 0.3 1 0.6 0 0.2-1 2-1.5 1.7-0.5 2.2 0.5t1 0 2.5 7.5 2.5 8 0.8-2.5l0.2-2h0.2q0.3 0 0.8 2l0.5 2 9.5 28.5q9.5 28.5 18.8 45.7 9.2 17.3 17.7 27.8t16.5 17 9 7 2.5 0.8l1.5 0.2h0.5l0.3 0.2 0.2 0.3 0.2 0.3 0.3 0.2 0.3 0.2 0.2 0.3 1 0.5 1 0.5 5 1.5q5 1.5 12.5 1t8.5-1 2-0.8l1-0.2-0.2 0.5-0.3 0.5-0.3 0.2-0.2 0.3 2.5 0.5 2.5 0.5-1 0.5-1 0.5-0.2 0.3-0.3 0.2-0.3 0.2-0.2 0.3-1 0.5q-1 0.5 0 0.8 1 0.2-3.5 15.7t-2.5 15.7l2 0.3-1.5 0.3-1.5 0.2-0.2 1-0.3 1-0.3-0.2-0.2-0.3-2.5-0.3-2.5-0.2-7-0.2q-7-0.3-11-1.3t-13-5.5-17.5-11.5-15.3-16.3q-6.7-9.2-16.2-28.2t-18-43-14.2-48.5l-5.8-24.5v-3.5z" fill="#865300" stroke="#865300"/>
  <path d="m135 102.2l1-0.2v5.5q0 5.5 1.5 5.5t2 1.2q0.5 1.3 1.5 1 1-0.2 0.2 6.8-0.7 7 46 67.8 46.8 60.7 61.6 77.4 14.7 16.8 15 17 0.2 0.3 0.4 0.6l0.3 0.2 0.3 0.2 0.2 0.3 0.2 0.3 0.3 0.2 0.5 1 0.5 1 0.3 0.2 0.2 0.3 0.2 0.3 0.3 0.2 0.3 0.2 0.2 0.3 0.2 0.3 0.3 0.2 0.3 0.2 0.2 0.3h2v-0.5l2.5 3.2q2.5 3.3 2.7 3.6l0.3 0.2 0.3 0.2 0.2 0.3 1 0.3 1 0.2v2l1 0.2 1 0.3 0.2 0.3 0.3 0.2 0.3 0.2 0.2 0.3 0.2 0.3 0.3 0.2 0.3 0.2 0.2 0.3 0.2 0.3 0.3 0.2v-10.5q0-10.5-1.5-28.5l-1.5-18 4.3-0.2q4.2-0.3 5.4-1 1.3-0.8 1.6-2.6 0.2-1.7 0.7-2l0.5-0.2v1q0 1 2 1t8.8 10q6.7 10 25.2 34.5t19 25.5l0.5 1 0.3 0.2 0.2 0.3 0.2 0.3 0.3 0.2 0.3 0.5 0.2 0.5v0.5l0.5 0.3 0.5 0.2v0.5l-1 0.5-1 0.5-1 0.5-1 0.5-1 0.5q-1 0.5-6.5 2.5t-13.5 2.5-16.5-3.5-12.5-3.5-5.5-0.5-12.5-8.5-25.5-22-28.3-30.8q-13.7-16.2-16.4-17.2-2.8-1-2.6-2 0.3-1-5.4-7l-5.8-6-0.2-1q-0.3-1-0.6-1h-0.2v-1l-0.2-0.5q-0.3-0.5-0.6-0.5h-0.2l-0.2-0.5q-0.3-0.5-0.6-0.5h-0.2l-0.2-0.5q-0.3-0.5-0.6-0.5h-0.2l-0.5-0.2q-0.5-0.3-0.5-0.6v-0.2l0.2-0.5q0.3-0.5-28.7-38t-32.7-41q-3.8-3.5-4.3-1t-3 2.3q-2.5-0.3-3-2.6-0.5-2.2-4.5-1.7t-4-0.5-2-1.2l-2-0.3v-0.5l0.5-0.2q0.5-0.3 0.5-0.6v-0.2l0.5-0.2q0.5-0.3 0.7-4l0.3-3.8-0.3-0.2-0.2-0.3-1.5-0.5-1.5-0.5-1-0.5q-1-0.5-4.5-1t-10.3-3.2l-6.7-2.8-0.3-0.2-0.2-0.3-0.2-0.3-0.3-0.2-0.3-0.2-0.2-0.3-0.2-0.3-0.3-0.2-0.5-1-0.5-1v-3l0.3-0.2 0.2-0.3 0.2-0.3 0.3-0.2 0.3-0.2 0.2-0.3 1-0.3q1-0.2 4.5-5.4 3.5-5.3 7.3-5 3.7 0.2 9 6 5.2 5.7 11.7 5.2t8-2 6.5-1 6 0.2z" fill="#825400" stroke="#825400"/>
  <path d="m867.2 81l-0.2-2 1.8 1.5q1.7 1.5 4.4 3.7 2.8 2.3 9.8 4.3t16 2 10.5 0.3l1.5 0.2-2.8 3.5q-2.7 3.5 1.8 34.5t7 42.5 2.8 14l0.2 2.5-0.2 2q-0.3 2-0.8 2.5t-2.5-8-2.5-7.5-1 0-1.2 0.5q-0.8 1.5-2.3 1.5t-1.5-1-2-1.8q-2-0.7-2.8 0-0.7 0.8-2.4-0.2l-1.8-1v7h-0.5l-0.5-2.5-0.5-2.5-0.5-2.5q-0.5-2.5-4.5-23l-4-20.5-0.5-1-0.5-1-0.3-0.2-0.2-0.3-1-0.5-1-0.5-0.2-0.3-0.3-0.2-0.3-0.2-0.2-0.3-0.2-0.3-0.3-0.2-0.3 0.2-0.2 0.3-0.2 0.3-0.3 0.2-0.3 0.2-0.2 0.3-0.2 0.3-0.3 0.2-0.3 1-0.2 1h2l-0.2 1-0.3 1-0.3 0.2-0.2 0.3 0.2 0.3 0.3 0.2 7.5 37q7.5 37 9 42.5t2 8l0.5 2.5 0.5 2 0.5 2 0.3 1 0.2 1-0.5-0.2-0.5-0.3-0.2-0.3-0.3-0.2-0.5-1-0.5-1-0.5-1-0.5-1-0.3-0.2-0.2-0.3-0.2-0.3-0.3-0.2-0.5-1.5q-0.5-1.5-1-2.5t-1-0.5-3.2-5.5q-2.8-6-3.8-6.2-1-0.3-0.5-1.6 0.5-1.2-0.5-1.2t-2.5-2.8q-1.5-2.7-2.3-4-0.7-1.2-2-1.7-1.2-0.5-2-2.5-0.7-2-5-7.8-4.2-5.7-11.2-5.7t-11 2l-4 2-0.2 0.3-0.3 0.2-0.3 0.2-0.2 0.3-0.2 0.3-0.3 0.2v-2.5q0-2.5 0.3-3.5 0.2-1-0.8-1t-2.2-6q-1.3-6-0.8-10.5t1.2-9.5l0.8-5 3.5-8q3.5-8 4.3-8.5 0.7-0.5 10.2-19t8.8-20.7q-0.8-2.3-2.6-5-1.7-2.8-2-4.8z" fill="#845000" stroke="#845000"/>
  <path d="m106 130.2l1-0.2v1q0 1 1.5 1t1.5 1 4 0.5 4.5 1.7q0.5 2.3 3 2.6 2.5 0.2 3-2.3t4.3 1q3.7 3.5 32.4 40.3 28.8 36.7 29.8 37 1 0.2 0.8 1.2-0.3 1-0.6 1h-1.2v0.2q0 0.3 0.5 0.6l0.5 0.2v0.2q0 0.3 0.5 0.6l0.5 0.2v0.2q0 0.3 0.5 0.6l0.5 0.2h0.2q0.3 0 0.6 0.5l0.2 0.5v1l0.2 1q0.3 1 0.6 1h0.2l5.8 10q5.7 10 10.4 20.8 4.8 10.7 10 19 5.3 8.2 5.6 8.4l0.2 0.3 0.2 0.3 0.3 0.2 0.3 0.2 0.2 0.3 0.2 0.3 0.3 0.2 0.3 0.2 0.2 0.3 0.2 0.3 0.3 0.2 0.3 1 0.2 1h-2l-0.2-1q-0.3-1-2-2l-1.8-1 1.2 11.5q1.3 11.5 5.8 46t7 58 3.5 40 1.3 17l0.2 0.5h-0.2q-0.3 0-17.6 5.8-17.2 5.7-15.7 6 1.5 0.2 1.5 1.2t-5.5 3.2l-5.5 2.3-1 0.5-1 0.5-1 0.5-1 0.5-0.2 0.3-0.3 0.2-0.3 0.2-0.2 0.3-1 0.3-1 0.2v-2l1-0.2 1-0.3 0.2-0.3 0.3-0.2 0.3-0.2 0.2-0.3 0.2-0.3 0.3-0.2 0.3-0.2 0.2-0.3 0.2-0.3 0.3-0.2 0.5-1q0.5-1 1.8-5.5 1.2-4.5 0.2-4.5t-4.8-26.5q-3.7-26.5-6.2-32.5l-2.5-6-0.3-0.2-0.2-0.3h-1q-1 0-4.5 2.3-3.5 2.2-3.5 1.2t-2-1.2l-2-0.3-0.2-0.3-0.3-0.2-0.3-0.2-0.2-0.3-0.2-0.3-0.3-0.2v-2l0.3-0.2q0.2-0.3 0.4-0.6 0.3-0.2 0.8-22.2t-1-39.5-1.5-28 0.5-9.5 1.5 0 1-7-8.3-41.8q-8.2-35.7-9-34.4-0.7 1.2-3 0.7-2.2-0.5-5.7-10.3-3.5-9.7-4.3-9-0.7 0.8-1.4-0.4-0.8-1.3-1.3-0.6-0.5 0.8-3.3-1.7-2.7-2.5-5-2.5h-2.2l-0.2-0.5q-0.3-0.5-8.3-22.5t-12.7-23.8l-4.8-1.7-0.2-0.3-0.3-0.2-0.3-0.2-0.2-0.3-0.2-0.3-0.3-0.2-0.3-0.2-0.2-0.3-0.2-0.3-0.3-0.2v-3l1.7-1.2q1.8-1.3 2.8-1.6zm71.2 265q0.3-0.2 0.6 0 0.2 0.3-0.3 0.3t-0.3-0.3z" fill="#e6b441" stroke="#e6b441"/>
  <path d="m198.2 229.5l-8.2-13.5h1l0.8 0.5q0.7 0.5 1 1.5l0.2 1h0.2q0.3 0 0.6 0.5l0.2 0.5 5.5 6.8q5.5 6.7 7.7 8 2.3 1.2 7.6 8 5.2 6.7 15.7 18.7t24 25.5 24.5 21 12.5 8.5 5.5 0.5 12.5 3.5 16.5 3.5 13.5-2.5 6.5-2.5l1-0.5 1-0.5 1-0.5 0.2-0.3q0.3-0.2 0.6-1.2l0.2-1 1.2 0.5q1.3 0.5 1.6 0.3l0.2-0.3 0.2-0.3q0.3-0.2 5.8-4.7t13.2-13.7q7.8-9.3 15.6-22.6 7.7-13.2 13.7-28.2l6-15 0.5-1 0.5-1 0.5-1.5 0.5-1.5 0.5-1.5 0.5-1.5h0.5l0.2 2 0.3 2v1l-0.5 1.5-0.5 1.5-0.5 4q-0.5 4-0.2 14 0.2 10 1.2 10t1 5.8q0 5.7 0.5 6.2t-0.3 1.2q-0.7 0.8-1.2 9.3t-6.8 19.7q-6.2 11.3-15.2 22.8t-16 18-8 7l-1 0.5-0.2 0.3-0.3 0.2-0.3 0.2-0.2 0.3-0.2 0.3-0.3 0.2-0.3 0.2-0.2 0.3 1 0.5 1 0.5-0.2 0.3-0.3 0.2-0.3 0.2-0.2 0.3-0.2 0.3-0.3 0.2-0.3 0.2-0.2 0.3-0.2 0.3-0.3 0.2-0.3 1-0.2 1-6.5 3.2q-6.5 3.3-8 3.6-1.5 0.2-1.5 1.2t-10 2-10 2.5-2.5 3.7q-2.5 2.3-2.7 4.6-0.3 2.2-2.8 16.7t-2.8 31l-0.2 16.5h11v0.5l-3 0.5-3 0.5-3.5 0.5q-3.5 0.5-21.5 3.5l-18 3-2.5 0.5-2.5 0.5-2 0.3-2 0.2-1 0.2q-1 0.3-3 0.8t-0.5 1 0 1.5-7.5 1.3q-6 0.2-6-0.8t-3-1h-3l-0.2-0.5q-0.3-0.5-1.3-17t-3.5-40-7-58-5.8-46l-1.2-11.5 1.5 0.8q1.5 0.7 2.5 0.7h1l-0.2-0.3-0.3-0.2-0.3-0.2-0.2-0.3-0.2-0.3-0.3-0.2-0.3-0.2-0.2-0.3-0.2-0.3q-0.3-0.2-5.6-8.4-5.2-8.3-10-19-4.7-10.8-13-24.3z" fill="#815400" stroke="#815400"/>
  <path d="m515 505.2l9-0.2v0.5l-1 0.5-1 0.5-2 0.5-2 0.5-1 0.5-1 0.5-4.5 1.7q-4.5 1.8-8 5.6-3.5 3.7-7.3 8-3.7 4.2-5.2 11.2t-4 18.5-2.5 14v2.5l0.3 1.5 0.2 1.5h42v0.5l-11 0.5q-11 0.5-60.5 3.2l-49.5 2.8-2 0.2-2 0.3-6 0.5q-6 0.5-18 0.5t-13.5-1-0.3-2.3q1.3-1.2-8.4-2.4l-9.8-1.3-2.5-0.5-2.5-0.5v-0.5l1.5-0.2 1.5-0.3 1-0.5 1-0.5 9-0.5q9-0.5 16-3t14.5-8.5 12.3-13.3q4.7-7.2 6.7-16.2t1.5-13.5-3-10-4.8-7.5q-2.2-2-2.4-3-0.3-1-4.6-5.8-4.2-4.7-12.2-5.4l-8-0.8v-0.5l4.5-0.5 4.5-0.5 10.5-1q10.5-1 25.5-0.5t23 5 7.5 5 11 6.2q11.5 5.8 12 6.6 0.5 0.7 1.5 0.4 1-0.2 1 0.8t1.8 1q1.7 0 8.4 1.2 6.8 1.3 15.3-0.2t17.5-1.8z" fill="#a37514" stroke="#a37514"/>
  <path d="m885.8 485.5l-2.8-8.5 49 3.8q49 3.7 89.5 8.7t40.5 5.3v0.2h-9.5q-9.5 0-10 1.2-0.5 1.3-1.5 1.6-1 0.2-3.2 7.7-2.3 7.5-1.8 17.5t3.5 17.5 8.5 16 10.8 12.3q5.2 3.7 8.2 4.7t10 0.5 13.2-7.2q6.3-6.8 9.3-12.3t5.5-18 2.5-20-2.3-10.3q-2.2-2.7-3.7-3.2l-1.5-0.5-1.5-0.5-1.5-0.5v-0.5l3-0.2 3-0.3-0.2-0.3-0.3-0.2-0.3-0.2-0.2-0.3v-0.5l2 0.2 2 0.3 3 1q3 1 4.5 1.3l1.5 0.2 1 0.2 1 0.3 1.5 0.5 1.5 0.5 1.5 0.5 1.5 0.5 16 7q16 7 18.8 8.7 2.7 1.8 3 2l0.2 0.3 0.2 0.3 0.3 0.2 0.3 0.2 0.2 0.3 0.2 0.3 0.3 0.2 0.3 0.2 0.2 0.3 0.2 0.3 0.3 0.2 0.3 0.2 0.2 0.3 0.5 0.3 0.5 0.2 0.2 1 0.3 1 0.5 1 0.5 1v4l-0.3-0.2-0.2-0.3-0.2-0.3-0.3-0.2-0.5-1-0.5-1-0.3-0.2-0.2-0.3-0.2-0.3-0.3-0.2-0.3-0.2-0.2-0.3-0.2-0.3-0.3-0.2-0.3-0.2-0.2-0.3-0.2-0.3-0.3-0.2-0.3-0.2q-0.2-0.3-3.7-2.8l-3.5-2.5-1-0.5-1-0.5h-5l0.2 0.3 0.3 0.2v1l-1 7.5q-1 7.5-0.5 44t0.8 37.5q0.2 1-1.3 1.2-1.5 0.3-4 0l-2.5-0.2v2l1 0.2 1 0.3 1.5 0.5q1.5 0.5 2 0.8l0.5 0.2v0.2q0 0.3 0.5 0.6l0.5 0.2 0.2 0.5q0.3 0.5 0.6 0.7l0.2 0.3 0.2 0.3 0.3 0.2 0.3 0.2 0.2 0.3 0.2 0.3 0.3 0.2 0.3 0.2 0.2 0.3 0.2 0.3 0.3 0.2 0.3 0.2 0.2 0.3 0.2 0.3 0.3 0.2 0.3 0.2 0.2 0.3 1 0.5 1 0.5-0.2 0.3-0.3 0.2-0.3 0.2-0.2 0.3h-3l-0.2-0.3-0.3-0.2-0.3 0.2-0.2 0.3-0.2 0.3-0.3 0.2-0.3-0.2-0.2-0.3-1-0.5-1-0.5-1.5-0.5q-1.5-0.5-5.5-2t-11-3-11-3-24-9-71.5-14-110-9.8l-58.5-3.2-1-0.2q-1-0.3-37.5-2l-36.5-1.8v-0.5h56q56 0 58-0.5l2-0.5-0.2-0.3q-0.3-0.2 0.4-1 0.8-0.7 0-22.4-0.7-21.8-2.7-39.3t-4.7-26z" fill="#ba8724" stroke="#ba8724"/>
  <path d="m326.5 483.2l3.5-0.2v0.5l2 0.5 2 0.5 0.2 0.3 0.3 0.2 0.3 0.2 0.2 0.3 0.2 0.3 0.3 0.2 0.3 0.5 0.2 0.5-10.8 2q-10.7 2-13.7 8.5t-3.5 10-1 10.5 1 16.5 7 18 10.2 12.3q4.8 3.7 9.8 5.7t5.5 2.3l0.5 0.2v0.5l2.5 0.5 2.5 0.5 9.8 1.3q9.7 1.2 8.4 2.4-1.2 1.3 0.3 2.3t13.5 1 18-0.5l6-0.5 2-0.3 2-0.2v0.5l-0.2 0.3-0.3 0.2-0.3 1-0.2 1-3.5 0.2-3.5 0.3-5 0.5q-5 0.5-14.5 1.5t-12 2.3q-2.5 1.2-2.5 2.2t-2.5 1.2q-2.5 0.3-1 0.8t-1.7 1.8q-3.3 1.2-2.6 1.7 0.8 0.5-0.2 2.3-1 1.7-27 6.2l-26 4.5-0.2 0.3-0.3 0.2-0.3 0.2-0.2 0.3-0.2 0.3-0.3 0.2-0.3 0.2-0.2 0.3-0.2 0.3-0.3 0.2-0.3 0.2-0.2 0.3-1 0.5-1 0.5 2.5 0.5 2.5 0.5 6 0.3 6 0.2v0.5l-1 0.5-1 0.5 0.2 0.3 0.3 0.2 0.3 1 0.2 1-2 0.2-2 0.3-2.5 0.5q-2.5 0.5-4.5 1l-2 0.5-1 0.5-1 0.5-1.5 0.5-1.5 0.5 1 0.5 1 0.5 21.5 0.5 21.5 0.5 1 0.3 1 0.2 0.2 1 0.3 1 0.3 0.2 0.2 0.3 2.5 0.5 2.5 0.5v0.5h-0.5l-0.3 0.2-0.2 0.3-5.5 0.5q-5.5 0.5-45.5 5l-40 4.5h-2l-2.5-0.5-2.5-0.5 2-0.5 2-0.5 10.5-2q10.5-2 13-2.5l2.5-0.5 2-0.5 2-0.5 1.5-0.3 1.5-0.2v-2l-8.5 0.2q-8.5 0.3-32.5 0.3t-28-3-10-3-9 1.5l-3 1.5-1 0.5-1 0.5-1.5 0.5-1.5 0.5-0.2 0.3-0.3 0.2v-3l0.3-0.2 0.2-0.3 0.2-0.3 0.3-0.2 0.3-0.2 0.2-0.3 0.2-0.3 0.3-0.2 0.3-0.2 0.2-0.3 0.2-0.3 0.3-0.2 0.3-0.2 0.2-0.3 0.2-0.3 0.3-0.2 0.3-0.2 0.2-0.3 0.2-0.3 0.3-0.2 0.3-0.2 0.2-0.3 1-0.5q1-0.5 1.5-0.8l0.5-0.2 0.5-0.2q0.5-0.3 0.5-0.6v-0.2l1-0.2q1-0.3 5.5-1.3t14.3-5.3q9.7-4.2 7.4-5-2.2-0.7 5.3-3.7t8.7-9.3q1.3-6.2 1.6-47.2l0.2-41-6 0.2q-6 0.3-9.5 1.3l-3.5 1h-4l-1-0.5-1-0.5v-0.5l0.5-0.2 0.5-0.3 1.5-0.5 1.5-0.5 1.5-0.5 1.5-0.5 4.5-1.7q4.5-1.8 4.5-2.8t-1-1-1-1 10.5-3.2q10.5-2.3 12-2.6l1.5-0.2 14-1.8q14-1.7 26-2.7t15.5-1.5l3.5-0.5 2-0.3 2-0.2 1.5-0.2q1.5-0.3 5-0.6z" fill="#946205" stroke="#946205"/>
  <path d="m1177.5 183.2l0.5-0.2h0.2q0.3 0-2.7 9t-3.5 12l-0.5 3-0.3 0.2-0.2 0.3-0.2 0.3-0.3 0.2-0.3 0.2-0.2 0.3-0.2 0.3-0.3 0.2-0.3 1-0.2 1 1.5 0.2 1.5 0.3 0.2 0.3 0.3 0.2 0.3-0.2 0.2-0.3 0.2-0.3 0.3-0.2v-1l-0.3-0.2-0.2-0.3 0.2-0.3 0.3-0.2v-1l-0.3-0.2-0.2-0.3 0.2-0.3 0.3-0.2 0.7-1.8q0.8-1.7 1.8-2 1-0.2 1.2-1.7l0.3-1.5 0.5-1 0.5-1 0.3-1 0.2-1 1 0.2 1 0.3 0.2 0.3 0.3 0.2 0.5 4 0.5 4 0.5-1.5 0.5-1.5 1-4q1-4 1.5-5l0.5-1 0.3-0.2 0.2-0.3 0.2-0.3 0.3-0.2 0.3-0.2 0.2-0.3 0.2-0.3 0.3-0.2 0.3-0.2 0.2-0.3 0.2-0.3 0.3-0.2 0.3-0.2 0.2-0.3 0.2-0.3 0.3-0.2 0.3-0.2 0.2-0.3 0.2-0.3 0.3-0.2v2l-0.5 1.5-0.5 1.5-0.5 1.5-0.5 1.5-7.5 30q-7.5 30-12 62t-4.8 43q-0.2 11 1.8 11.5t2.8 23.5q0.7 23 1.2 25.5l0.5 2.5 0.3 0.2 0.2 0.3 0.2 0.3 0.3 0.2v3l-0.3 0.2-0.2 0.3-1 0.3-1 0.2-0.5-0.2-0.5-0.3-0.2-0.3-0.3-0.2-0.3-0.2-0.2-0.3-0.2-0.3q-0.3-0.2-2.6-1-2.2-0.7-3.7-2.2l-1.5-1.5-0.2-0.3-0.3-0.2-0.3-0.2-0.2-0.3-0.2-0.3-0.3-0.2-0.3 0.2-0.2 0.3-0.2 0.3-0.3 0.2-0.5 1-0.5 1-0.5 1-0.5 1-6 29.5q-6 29.5-6 37t2.7 10.3q2.8 2.7 3.3 3l0.5 0.2v0.2q0 0.3 0.5 0.6l0.5 0.2 0.2 0.5q0.3 0.5 0.6 0.7l0.2 0.3 0.2 0.3 0.3 0.2 0.3 0.2 0.2 0.3 1 0.5 1 0.5 0.2 0.3 0.3 0.2 0.3 0.2 0.2 0.3 0.2 0.3 0.3 0.2 0.3 0.2 0.2 0.3 0.2 0.3 0.3 0.2 0.5 1 0.5 1v1l-0.3 0.2-0.2 0.3h-5l-1-0.5-1-0.5-1-0.5q-1-0.5-11.5-4.5t-16.5-4.5-10.5-3.2q-4.5-2.8-4.5-3.8t-5.5-3.8q-5.5-2.7-13-5.2l-7.5-2.5-2-0.5-2-0.5-1-0.5-1-0.5h4l0.2 0.3 0.3 0.2 0.3-0.2 0.2-0.3 0.5-0.3 0.5-0.2 9.5 0.5q9.5 0.5 9.5-0.5t1-1 0.8-2q-0.3-2 1.2-12t4-22.5 2.8-16.5l0.2-4h0.5l0.5-1 0.5-1 0.5-2.5 0.5-2.5 0.3-0.2 0.2-0.3 0.2-0.3 0.3-0.2 0.5-2.5q0.5-2.5 2.2-12.3 1.8-9.7 5.6-35.4 3.7-25.8 4.7-28.8t1-15-1.7-13.8q-1.8-1.7-5.8-3-4-1.2-3.2-3.2 0.7-2 1-4 0.2-2-0.8-2t0.2-4l1.3-4 0.3-0.2 0.2-0.3 0.2-0.3 0.3-0.2 0.5-1 0.5-1v-1q0-1-0.3-1.5l-0.2-0.5v-0.5l0.5-0.3 0.5-0.2 27.2-33.5q27.3-33.5 27.6-34l0.2-0.5h0.2q0.3 0 0.6-0.5l0.2-0.5v-0.2q0-0.3 0.5-0.6zm-2 22.6q0.5-1.3 1 0 0.5 1.2-0.5 1.2t-0.5-1.2z" fill="#b47f1f" stroke="#b47f1f"/>
  <path d="m1185.8 503h0.2v0.2q0 0.3-0.2 11-0.3 10.8-3.3 16.8t-9.3 11.2q-6.2 5.3-7.4 11.6-1.3 6.2-1.8 24.2t1 31.5 8.8 19.7q7.2 6.3 10 11 2.7 4.8 3.2 13.3t-2 15.5-8.8 13.2q-6.2 6.3-20.7 12.8t-34.5 11.5-57 11-74 8.3l-37 2.2v-0.5l4-0.5 4-0.5 29.5-4.5q29.5-4.5 32.3-5.8 2.7-1.2 3-1.4l0.2-0.3-1-0.5q-1-0.5-1-0.8v-0.2l20-5.2q20-5.3 27-8.8t20.5-7.5 15.5-4.5 4-1l2-0.5 1.5-0.5 1.5-0.5v-0.5l12-3.8q12-3.7 15-5.2t4-2l1-0.5 1-0.5 1-0.5 1-0.5 1-0.5 0.2-0.3 0.3-0.2v-3l-0.3-0.2-0.2-0.3-0.2-0.3-0.3-0.2-0.3-0.2-0.2-0.3-1-0.5-1-0.5-0.2-0.3-0.3-0.2-0.3-0.2-0.2-0.3-1-0.5q-1-0.5-9.5-4t-40.5-10.5-54-9.7l-22-2.8v-0.2q0-0.3-32-3.8l-32-3.5-4.5-0.5-4.5-0.5v-0.5l44 3.8q44 3.7 75 7.7t34 4.3l3 0.2v0.5l3 0.5 3 0.5 15 1.5q15 1.5 24.5-0.5t11.7-3.3q2.3-1.2 2.6-1.4l0.2-0.3 0.2-0.3 0.3-0.2 0.5-1 0.5-1 0.5-1 0.5-1v-3l-0.5-1-0.5-1-0.5-1q-0.5-1-6.2-5.2l-5.8-4.3-1-0.5-1-0.5-1-0.5-1-0.5-1.5-0.3-1.5-0.2-0.2-0.5q-0.3-0.5-0.6-0.5h-0.2l-0.5-0.2q-0.5-0.3-2-0.8l-1.5-0.5-1-0.3-1-0.2v-2l2.5 0.2q2.5 0.3 4 0 1.5-0.2 1.3-1.2-0.3-1-0.8-37.5t0.5-44l1-7.5v-1l-0.3-0.2-0.2-0.3h5l1 0.5 1 0.5 3.5 2.5q3.5 2.5 3.7 2.8l0.3 0.2 0.3 0.2 0.2 0.3 0.2 0.3 0.3 0.2 0.3 0.2 0.2 0.3 0.2 0.3 0.3 0.2 0.3 0.2 0.2 0.3 0.2 0.3 0.3 0.2 0.5 1 0.5 1 0.3 0.2 0.2 0.3 0.2 0.3 0.3 0.2v-4l-0.5-1-0.5-1-0.3-1-0.2-1-0.2-1-0.3-1-0.3-0.2-0.2-0.3-0.2-0.3-0.3-0.2-0.3-1.8q-0.2-1.7 0.6-2.4 0.7-0.8 2.4-1.8 1.8-1 2.3-2.8 0.5-1.7 2.5-2.4 2-0.8 1.5 1.2t4-0.2q4.5-2.3 6.7-6 2.3-3.8 2.6-3.8z" fill="#fdd95f" stroke="#fdd95f"/>
  <path d="m471.5 620.2l1.5-0.2 16 1.2q16 1.3 19 2.8t3.5 1.8l0.5 0.2v0.2q0 0.3 0.5 0.6l0.5 0.2 0.2 0.5q0.3 0.5 0.6 0.7l0.2 0.3 0.2 0.3 0.3 0.2 0.3 0.2 0.2 0.3 0.2 0.3 0.3 0.2 0.3 0.2 0.2 0.3 0.2 0.3 0.3 0.2 0.3 0.2 0.2 0.3 0.2 0.3 0.3 0.2 0.3 0.2 0.2 0.3 7 6.5q7 6.5 8 6.8 1 0.2 1.2 1.7 0.3 1.5 0.6 2.5l0.2 1-0.8 0.5q-0.7 0.5-0.2 1.5l0.5 1 0.3-0.2 0.2-0.3 0.2-0.3 0.3-0.2v2l-0.3 0.2-0.2 0.3-0.2 0.3-0.3 0.2-0.3 0.2-0.2 0.3-0.2 0.3-0.3 0.2-0.3 0.2-0.2 0.3-0.2 0.3q-0.3 0.2-3.6 1.2l-3.2 1-16.5 0.2q-16.5 0.3-27 3.3t-21 5-45.5 2-43.5-1.7q-8.5-1.8-9.3-3.8-0.7-2-5-4.2-4.2-2.3-18.7-4.8t-27.5-2.5-16.2 1.3q-3.3 1.2-2.6 4.2 0.8 3-0.2 3t-1 1 1 1 1 1-1 1.2q-1 0.3-2.5 3-1.5 2.8-3 3l-1.5 0.3 0.2 0.3 0.3 0.2 0.3 0.2 0.2 0.3 0.2 0.3 0.3 0.2 0.3 0.2 0.2 0.3 1.5 0.5 1.5 0.5 2.5 0.5 2.5 0.5 3 0.5 3 0.5 1 0.5 1 0.5-1 0.3-1 0.2-4-0.2q-4-0.3-20-1.3t-16.5 0.3q-0.5 1.2-3.5 1.4l-3 0.3-4 0.5-4 0.5 0.2 0.3 0.3 0.2 0.3 0.5 0.2 0.5-0.5 0.8q-0.5 0.7-3.5 1.2t-3 0.8v0.2l-1.5-0.2q-1.5-0.3-7-1.8t-20-7l-14.5-5.5-0.2-0.3-0.3-0.2-0.3-0.2-0.2-0.3-0.2-0.3-0.3-0.2-0.3-0.2-0.2-0.3-0.2-0.3-0.3-0.2v-3l0.3-0.2 0.2-0.3 1-0.5 1-0.5 0.2-0.3 0.3-0.2 0.3-0.2 0.2-0.3 12-4.5q12-4.5 44.5-11.5t83.5-13 55.5-6.5l4.5-0.5-2.5-0.3-2.5-0.2v-0.5l3-0.3 3-0.2 0.5 0.2q0.5 0.3 3.5 0.3h3v-0.5l22-1.8q22-1.7 27-2l5-0.2v0.5h5.5q5.5 0 4.5-0.3l-1-0.2v-0.2q0-0.3 1.5-0.6z" fill="#884e00" stroke="#884e00"/>
  <path d="m764 617.2v-0.2l5.5 0.8q5.5 0.7 28 1.2t68 3 47.5 2.8l2 0.2 0.5 1.5q0.5 1.5-0.7 2-1.3 0.5-0.8 1.5l0.5 1 4 5q4 5 7.7 8.8 3.8 3.7 5.8 4.2t3 1l1 0.5 0.2 0.3 0.3 0.2 0.3 0.2 0.2 0.3 0.2 0.3 0.3 0.2v1l-0.3 0.2-0.2 0.3-1 0.5-1 0.5-1 0.5-1 0.5-0.2 0.3-0.3 0.2-0.3 0.2q-0.2 0.3-0.4 0.6-0.3 0.2-7.6 4.2-7.2 4-8.4 6-1.3 2-3.3 6.5l-2 4.5-0.3 0.2-0.2 0.3 0.2 0.3 0.3 0.2 0.5 1 0.5 1 4.7 2.8q4.8 2.7 7.3 3.7t9.5 1.3l7 0.2v0.5l-8.5 0.5q-8.5 0.5-59 4l-50.5 3.5 10 0.5 10 0.5-8 0.5q-8 0.5-69 3.2l-61 2.8-35-0.2q-35-0.3-58-0.8l-23-0.5 4.5-0.5 4.5-0.5 1-0.5q1-0.5 7-1l6-0.5v-0.5l37.5 0.2q37.5 0.3 47 0l9.5-0.2 7.5-0.2q7.5-0.3 11-2.3t7-12.3q3.5-10.2 5.5-11 2-0.7 2.8-4 0.7-3.2-5.3-9.7t-6.5-10.5 10-14.5 13.8-14l3.2-3.5 5-0.2q5-0.3 5-0.6z" fill="#885100" stroke="#885100"/>
  <path d="m365.5 484.2l5.5-0.2 8 0.8q8 0.7 12.2 5.4 4.3 4.8 4.6 5.8 0.2 1 2.4 3 2.3 2 4.8 7.5t3 10-1.5 13.5-6.7 16.2q-4.8 7.3-12.3 13.3t-14.5 8.5-16 3l-9 0.5-1 0.5-1 0.5-1.5 0.3-1.5 0.2-0.5-0.2q-0.5-0.3-5.5-2.3t-9.8-5.7q-4.7-3.8-10.2-12.3t-7-18-1-16.5 1-10.5 3.5-10 13.7-8.5l10.8-2 12-1.2q12-1.3 17.5-1.6z" fill="#dbb83c" stroke="#dbb83c"/>
  <path d="m509.5 660.2l16.5-0.2v0.5l-1 0.5-1 0.5-1 0.5-1 0.5 1 0.3 1 0.2 0.2 1 0.3 1 0.3 0.2 0.2 0.3 1 0.5 1 0.5 2 0.5 2 0.5-0.2 0.3-0.3 0.2-0.3 0.2-0.2 0.3 0.2 0.3 0.3 0.2 0.3 0.5 0.2 0.5h-0.5l-0.3 0.2-0.2 0.3-6.5 0.5q-6.5 0.5-11 1.5t-10 3.5-6.5 4.8q-1 2.2-2 2.4l-1 0.3 0.2 0.3 0.3 0.2 0.5 2.5 0.5 2.5 0.3 1.5 0.2 1.5 1.5 0.2 1.5 0.3-1 0.5-1 0.5 0.2 0.3 0.3 0.2 0.3 0.5 0.2 0.5-4-0.2q-4-0.3-19.5-0.3t-67.5-4-78-7.7l-26-3.8 1-0.2 1-0.3-1-0.5-1-0.5-3-0.5-3-0.5-2.5-0.5-2.5-0.5-1.5-0.5-1.5-0.5-0.2-0.3-0.3-0.2-0.3-0.2-0.2-0.3-0.2-0.3-0.3-0.2-0.3-0.2-0.2-0.3 1.5-0.3q1.5-0.2 3-3 1.5-2.7 2.5-3 1-0.2 1-1.2t-1-1-1-1 1-1 0.2-3q-0.7-3 2.6-4.2 3.2-1.3 16.2-1.3t27.5 2.5 18.7 4.8q4.3 2.2 5 4.2 0.8 2 9.3 3.8 8.5 1.7 43.5 1.7t45.5-2 21-5 27-3.3z" fill="#aa700a" stroke="#aa700a"/>
  <path d="m532 597.5h28l-3 0.5-3 0.5 37.5 0.3 37.5 0.2 98.5 2.2q98.5 2.3 111 2.6l12.5 0.2v0.5l41.5 1.5q41.5 1.5 87.5 8t85.5 15.5 42.5 9.5l3 0.5 1 0.5 1 0.5 1 0.5 1 0.5 1.5 0.5 1.5 0.5-7 0.3-7 0.2-3-0.2q-3-0.3-34-4.3t-75-7.7l-44-3.8-4.5-0.2q-4.5-0.3-16.5-1l-12-0.8-2-0.2q-2-0.3-47.5-2.8t-68-3-28-1.2l-5.5-0.8-10.5-0.2q-10.5-0.3-88.5-0.3t-135 1.7l-57 1.8-1.5 0.2q-1.5 0.3-1.5 0.6v0.2h-9l-5 0.2q-5 0.3-27 2l-22 1.8h-7l-3 0.2-3 0.3v0.5l-6 0.2q-6 0.3-22.5 1.6l-16.5 1.2v-0.5l-2.5-0.5-2.5-0.5-0.2-0.3-0.3-0.2-0.3-1-0.2-1-1-0.2-1-0.3-21.5-0.5-21.5-0.5-1-0.5-1-0.5 1.5-0.5 1.5-0.5 1-0.5 1-0.5 2-0.5q2-0.5 4.5-1l2.5-0.5 2-0.3 2-0.2-0.2-1-0.3-1-0.3-0.2-0.2-0.3 1-0.5 1-0.5v-0.5l33.5-3.8q33.5-3.7 94.5-8.2t89-4.5z" fill="#875200" stroke="#875200"/>
  <path d="m686 430.2l32-0.2 24.5 0.8q24.5 0.7 53.5 1l29 0.2 1.5 0.2 1.5 0.3 20 2q20 2 21.5 2.3l1.5 0.2 13 3.2q13 3.3 13.2 3.6l0.3 0.2 0.3 0.2 0.2 0.3 1 0.3 1 0.2 0.2 1 0.3 1 0.5 1 0.5 1 0.3 2 0.2 2-1 0.2-1 0.3-0.2 0.3-0.3 0.2-0.3 0.2-0.2 0.3-2 0.5q-2 0.5-21.5 2.2l-19.5 1.8-9-0.2q-9-0.3-105.5-2.8t-106-3.5-14.5-3.5-10-3.8l-5-1.2v-0.2q0-0.3-44.5-1.8l-44.5-1.5-1.5-0.3-1.5-0.2v-2l1-0.2 1-0.3 0.2-0.3 0.3-0.2 0.3-0.2 0.2-0.3 17.5-1.5q17.5-1.5 17.5-1.8v-0.2l21-0.8q21-0.7 24.5-1l3.5-0.2 26.5-0.2q26.5-0.3 58.5-0.6z" fill="#fdfc9c" stroke="#fdfc9c"/>
  <path d="m530.2 670.2l0.3-0.2h0.5l74.5 1.2q74.5 1.3 83 2.8t11.5 3 4.8 3.2q1.7 1.8 2.7 4.8t1 5v2l-0.5 2.5-0.5 2.5-0.3 0.2-0.2 0.3-0.2 0.3-0.3 0.2-0.3 0.2-0.2 0.3-0.2 0.3-0.3 0.2-0.3 0.2-0.2 0.3v0.5l-9.5 0.2q-9.5 0.3-47 0l-37.5-0.2-14-0.2q-14-0.3-57-2.6l-43-2.2-0.2-0.5-0.3-0.5-0.3-0.2-0.2-0.3 1-0.5 1-0.5-1.5-0.3-1.5-0.2-0.2-1.5-0.3-1.5-0.5-2.5-0.5-2.5-0.3-0.2-0.2-0.3 1-0.3q1-0.2 2-2.4 1-2.3 6.5-4.8t10-3.5 11-1.5l6.5-0.5 0.2-0.3z" fill="#fdfa7e" stroke="#fdfa7e"/>
  <path d="m170.2 488l4.8-5 0.2 1q0.3 1 0.3 2.5v1.5l-0.3 0.2-0.2 0.3 0.2 0.3 0.3 0.2 0.5 1 0.5 1 0.3 1.5 0.2 1.5 3.5-0.2 3.5-0.3 0.2-0.3 0.3-0.2 0.3-0.2 0.2-0.3 0.2-0.3 0.3-0.2 0.3-0.2 0.2-0.3 0.2-0.3 0.3-0.2 0.3-0.2 0.2-0.3 0.2-0.3q0.3-0.2 0.6-0.7l0.2-0.5 1-0.2 1-0.3v-0.5l3.5-1.8q3.5-1.7 12-1.2t14 1.5 22 1.3q16.5 0.2 16.3 1.2-0.3 1-0.6 1.5l-0.2 0.5-1.5 0.2q-1.5 0.3-12 2.6-10.5 2.2-10.5 3.2t1 1 1 1-4.5 2.8l-4.5 1.7-1.5 0.5-1.5 0.5-1.5 0.5-1.5 0.5-0.5 0.3-0.5 0.2-12.2 5.5q-12.3 5.5-15.6 7.7-3.2 2.3-3.4 2.6l-0.3 0.2-0.3 0.2-0.2 0.3-0.2 0.3-0.3 0.2-0.3 0.2-0.2 0.3-0.2 0.3-0.3 0.2-0.3 0.2-0.2 0.3-0.2 0.3-0.3 0.2-0.3 0.2-0.2 0.3-0.2 0.3-0.3 0.2-0.3 0.2-0.2 0.3-0.2 0.3-0.3 0.2v3l0.3-0.2 0.2-0.3 0.2-0.3 0.3-0.2 0.3-0.2 0.2-0.3 0.2-0.3 0.3-0.2 0.3-0.2 0.2-0.3 0.2-0.3 0.3-0.2 0.3-0.2 0.2-0.3 1-0.5 1-0.5 0.2-0.3 0.3-0.2 0.3-0.2 0.2-0.3 0.2-0.3q0.3-0.2 6-4l5.8-3.7h4l1 0.5 1 0.5 1 0.3 1 0.2-2.8 20q-2.7 20-4.4 47.5-1.8 27.5-0.3 27.5t0.3 2q-1.3 2-1.6 2.5l-0.2 0.5h-0.2q-0.3 0-0.6 0.5l-0.2 0.5-0.5 0.2q-0.5 0.3-1.5 0.8l-1 0.5-0.2 0.3-0.3 0.2-0.3 0.2-0.2 0.3-0.2 0.3-0.3 0.2-0.3 0.2-0.2 0.3-0.2 0.3-0.3 0.2-0.3 0.2-0.2 0.3-0.2 0.3-0.3 0.2-0.3 0.2-0.2 0.3-0.2 0.3-0.3 0.2-0.3 0.2-0.2 0.3-0.2 0.3-0.3 0.2v3l0.3-0.2 0.2-0.3 1.5-0.5 1.5-0.5 1-0.5 1-0.5 3-1.5q3-1.5 9-1.5t10 3 28 3 32.5-0.3l8.5-0.2v2l-1.5 0.2-1.5 0.3-2 0.5-2 0.5-2.5 0.5q-2.5 0.5-13 2.5l-10.5 2-2 0.5-2 0.5 2.5 0.5 2.5 0.5h2l40-4.5q40-4.5 45.5-5l5.5-0.5 0.2-0.3 0.3-0.2h0.5l16.5-1.2q16.5-1.3 22.5-1.6l6-0.2 2.5-0.2 2.5-0.3 0.2-0.3 0.3-0.2h7.5v0.5l-3 0.5-3 0.5-5.5 0.5q-5.5 0.5-56.5 6.5t-83.5 13-44.5 11.5l-12 4.5-0.2 0.3-0.3 0.2-0.3 0.2-0.2 0.3-1 0.5-1 0.5-0.2 0.3-0.3 0.2v3l0.3 0.2 0.2 0.3 0.2 0.3 0.3 0.2 0.3 0.2 0.2 0.3 0.2 0.3 0.3 0.2 0.3 0.2 0.2 0.3 14.5 5.5q14.5 5.5 20 7t7 1.8l1.5 0.2v0.2q0 0.3 1.5 0.8l1.5 0.5 2 0.5 2 0.5 5.2 2.3q5.3 2.2 19.6 10.4 14.2 8.3 27.7 11.8t16.5 4 6 0.8l3 0.2 16 2.8q16 2.7 19 3.2l3 0.5 4.5 0.5 4.5 0.5v0.5l-7.5 0.2q-7.5 0.3-9 0.3t-37-4-71-11.5-51.5-14-21.5-11-9.7-11.8q-4.3-7.2-4.3-18.7t4-17.5 10-11 7.5-18.5 0.5-36-8-29.5-10.5-14-4-15.5 2-14 7.2-10.5z" fill="#fcd45b" stroke="#fcd45b"/>
  <path d="m1110.2 386l-0.2 10-0.2 4q-0.3 4-2.8 16.5t-4 22.5-1.2 12q0.2 2-0.8 2t-1 1-9.5 0.5l-9.5-0.5v-0.2q0-0.3-16.5-3.6l-16.5-3.2-1.5-0.2-1.5-0.3-1.8-1.3q-1.7-1.2-2-2.7-0.2-1.5-1.4-2-1.3-0.5 4.2-24t13.8-41.7q8.2-18.3 13.2-26 5-7.8 6-7.8t4.5-3.8q3.5-3.7 8-5.7t8.5-1 6.2 4.7q2.3 3.8 4.3 9.8t2 18.5-0.3 22.5z" fill="#d0982e" stroke="#d0982e"/>
  <path d="m684 574.2l15-0.2 35 0.8q35 0.7 39 1l4 0.2 36.5 1.8q36.5 1.7 37.5 2l1 0.2 18 3.2q18 3.3 21.5 4.8t3.7 1.8l0.3 0.2 0.3 0.2 0.2 0.3 1 0.5 1 0.5 0.2 0.3 0.3 0.2 0.5 1 0.5 1 0.3 3 0.2 3-2 0.2-2 0.3-2 0.5q-2 0.5-22.5 1.8l-20.5 1.2-12.5-0.2q-12.5-0.3-111-2.6l-98.5-2.2v-0.5l-1.5-0.5-1.5-0.5-1.5-0.5q-1.5-0.5-4-3t-12.5-4-44.5-2.5l-34.5-1-1.5-0.3-1.5-0.2 0.2-1.5 0.3-1.5 0.3-0.2 0.2-0.3 2-0.5 2-0.5 20-2q20-2 69-3.5t64-1.8z" fill="#fdfc9a" stroke="#fdfc9a"/>
  <path d="m592 444.2l14-0.2 5 1.2q5 1.3 10 3.8t14.5 3.5 106 3.5 105.5 2.8l9 0.2v0.5l43 2q43 2 82.5 8t79 15 42 9.5l2.5 0.5 2 0.5 2 0.5-1 0.5-1 0.5-3.5 0.5-3.5 0.5 1 0.5 1 0.5v1l0.2 0.3 0.3 0.2 0.3 0.2 0.2 0.3-3 0.3-3 0.2-2.5-0.2q-2.5-0.3-17.5-3l-15-2.8v-0.2q0-0.3-40.5-5.3t-89.5-8.7l-49-3.8-2.5-0.2q-2.5-0.3-51-2.8t-121.5-3.2l-73-0.8-3.5 0.2q-3.5 0.3-20.5 0.6l-17 0.2-10 0.2q-10 0.3-26.5 0.3t-15-1-67.5 2-103 6l-34 3-3 0.5-3 0.5-1 0.3-1 0.2-3.5 0.2q-3.5 0.3-5 0.6l-1.5 0.2 0.2-0.5 0.3-0.5 0.3-0.2 0.2-0.3 0.2-0.3 0.3-0.2 0.3-0.2 0.2-0.3-2-0.5-2-0.5-3-0.5-3-0.5 3-0.5 3-0.5 4-0.5 4-0.5-11-0.5-11-0.5 1.5-0.5 1.5-0.5 1-0.5 1-0.5 4-0.7q4-0.8 4-2.3t24-5.3q24-3.7 26.5-4l2.5-0.2 81-6.8q81-6.7 102.5-8.2t23-2 15.5-0.8z" fill="#7b4800" stroke="#7b4800"/>
  <path d="m1052.5 495h9.5l15 2.8q15 2.7 17.5 3l2.5 0.2v0.5l1.5 0.5 1.5 0.5 1.5 0.5q1.5 0.5 3.7 3.2 2.3 2.8 2.3 10.3t-2.5 20-5.5 18-9.3 12.3q-6.2 6.7-13.2 7.2t-10-0.5-8.2-4.7q-5.3-3.8-10.8-12.3t-8.5-16-3.5-17.5 1.8-17.5q2.2-7.5 3.2-7.7 1-0.3 1.5-1.6 0.5-1.2 10-1.2z" fill="#dfa334" stroke="#dfa334"/>
  <path d="m1203.2 119l-0.2-1 6 2.8q6 2.7 6 3v0.2h1.2q0.3 0 0.6 0.5l0.2 0.5v1l1.2 3.5q1.3 3.5 1.6 3.7l0.2 0.3 0.2 0.3 0.3 0.2v4l-0.3-0.2-0.2-0.3-0.2-0.3q-0.3-0.2-0.8-1.2t-1.8-1.2q-1.2-0.3-20.2 24l-19 24.2-0.5 0.2q-0.5 0.3-0.5 0.6v0.2l-0.5 0.2q-0.5 0.3-0.5 0.6v0.2l-0.2 0.5q-0.3 0.5-27.6 34l-27.2 33.5-0.5 0.2-0.5 0.3v0.5l-0.2 0.5-0.3 0.5-0.3 0.2-0.2 0.3-0.2 0.3-0.3 0.2-0.3 0.2-0.2 0.3-0.2 0.3-0.3 0.2-0.3 0.2-0.2 0.3-0.2 0.3-0.3 0.2-0.3 0.2-0.2 0.3-0.2 0.3-0.3 0.2-0.3 0.2-0.2 0.3-0.2 0.3q-0.3 0.2-10 11-9.8 10.7-22.3 21.7t-22 17.5-11.5 5.5-10.5 2.7l-8.5 3.8-1 0.2q-1 0.3-2 0.8t-8.5 1-12.5-1l-5-1.5-1-0.5-1-0.5-0.2-0.3-0.3-0.2-0.3-0.2-0.2-0.3-0.2-0.3-0.3-0.2h-0.5v-0.5l0.2-0.3 0.3-0.2 0.5-1 0.5-1 0.3-0.2 0.2-0.3 27-36q27-36 27.8-36.7 0.7-0.8-1.3-4.8t-2-8.5-1.5-9.5-1-13 6.8-15.8q6.2-7.7 12.2-10.2t13.5-5.5 14.5-2.5 10.2 2.8q3.3 2.2 4.8 7.2t1.5 8 2 8 2 11v6l-0.5 1-0.5 1-0.3-2q-0.2-2-1.7-2t-1.7-1l-0.3-1-0.3 0.2-0.2 0.3-0.2 0.3-0.3 0.2-0.3 0.2-0.2 0.3-0.2 0.3-0.3 0.2v4.5q0 4.5 2 5.5t-1.7 6.2q-3.8 5.3-10.3 9-6.5 3.8-6.7 4.8-0.3 1-4 3.5-3.8 2.5-6 15.5l-2.3 13-0.3 4-0.2 4 1-0.2 1-0.3 0.2-0.3 0.3-0.2 0.3-0.2 0.2-0.3 0.2-0.3 0.3-0.2 0.3-0.2 0.2-0.3 0.2-0.3 0.3-0.2 0.3-0.2 0.2-0.3 0.2-0.3 0.3-0.2 0.3-0.2 0.2-0.3 0.2-0.3 0.3-0.2 0.3-0.2 0.2-0.3 23.2-28.3q23.3-28.2 58.8-74.7t35.5-51-0.3-5.5z" fill="#774b01" stroke="#774b01"/>
  <path d="m1008.5 709.5h13.5l-1.5 0.5q-1.5 0.5-2.5 1.5l-1 1 3.5 0.3 3.5 0.2v0.2q0 0.3 1 0.8l1 0.5-0.2 0.3q-0.3 0.2-3 1.4-2.8 1.3-32.3 5.8l-29.5 4.5-4 0.5-4 0.5v0.5l-5.5 0.2q-5.5 0.3-29 2.3t-98 5.3l-74.5 3.2-72.5-0.2q-72.5-0.3-115.5-1.8t-114-6.8l-71-5.2v-0.5l-4.5-0.5-4.5-0.5-3-0.5q-3-0.5-19-3.2l-16-2.8-0.2-0.5-0.3-0.5-0.3-0.2-0.2-0.3-2-0.3-2-0.2v-2l-1-0.2-1-0.3 77.5 2.5q77.5 2.5 119.5 5t63 3 55 0.5h34l1.5-0.5 1.5-0.5 1-0.5 1-0.5-3-0.5-3-0.5-1-0.5-1-0.5-20.5-0.5-20.5-0.5 5.5-0.5 5.5-0.5 1.5-0.5 1.5-0.5 0.2-0.3 0.3-0.2 0.3-1 0.2-1 39.5-0.8q39.5-0.7 43-1.2l3.5-0.5 2.5-0.5 2.5-0.5-1.5-0.5-1.5-0.5v-0.5l35-0.2q35-0.3 100.5-1.3t79.7-1.7q14.3-0.8 19.8 0.7t19.2 2.3q13.8 0.7 27.3 0.7z" fill="#865200" stroke="#865200"/>
  <path d="m1217.2 128.5l-2.2-4.5h1.2q0.3 0 0.6 0.5l0.2 0.5 1 1.2q1 1.3 12 5 11 3.8 11 2.8v-1h1q1 0 1 2v2l-1.5 0.2q-1.5 0.3-7.5 1.8t-5 1.8q1 0.2 0.2 2.7-0.7 2.5-10.7 32t-17.5 60.5-10.8 55.5l-3.2 24.5-0.8 1q-0.7 1-3.2 12.5t-5 21.5-2.5 24.5 0 16v1.5l-0.5 2.5-0.5 2.5-0.3 0.2-0.2 0.3h-4v-0.5l1-0.2 1-0.3 0.2-0.3 0.3-0.2v-3l-0.3-0.2-0.2-0.3-0.2-0.3-0.3-0.2-0.5-2.5q-0.5-2.5-1.2-25.5-0.8-23-2.8-23.5t-1.8-11.5q0.3-11 4.8-43t12-62l7.5-30 0.5-1.5 0.5-1.5 0.5-1.5 0.5-1.5v-2l-0.3 0.2-0.2 0.3-0.2 0.3-0.3 0.2-0.3 0.2-0.2 0.3-0.2 0.3-0.3 0.2-0.3 0.2-0.2 0.3-0.2 0.3-0.3 0.2-0.3 0.2-0.2 0.3-0.2 0.3-0.3 0.2-0.3 0.2-0.2 0.3-0.2 0.3-0.3 0.2-0.5 1q-0.5 1-1.5 5l-1 4-0.5 1.5-0.5 1.5-0.5-4-0.5-4-0.3-0.2-0.2-0.3-1-0.3-1-0.2-0.2 1-0.3 1-0.5 1-0.5 1-0.3 1.5q-0.2 1.5-1.2 1.7-1 0.3 0 0.6 1 0.2 0.8 1.2-0.3 1-1.3 1h-1l-0.3 0.2-0.2 0.3-0.2 0.3-0.3 0.2-0.3 0.2-0.2 0.3 0.2 0.3 0.3 0.2v1l-0.3 0.2-0.2 0.3 0.2 0.3 0.3 0.2v1l-0.3 0.2-0.2 0.3-0.2 0.3-0.3 0.2-0.3-0.2-0.2-0.3-1.5-0.3-1.5-0.2 0.2-1 0.3-1 0.3-0.2 0.2-0.3 0.2-0.3 0.3-0.2 0.3-0.2 0.2-0.3 0.2-0.3 0.3-0.2v-1l1-4q1-4 3.3-10.2 2.2-6.3 1.2-6.6l-1-0.2v-0.2q0-0.3 0.5-0.6l0.5-0.2v-0.2q0-0.3 0.5-0.6l0.5-0.2 19-24.2q19-24.3 20.2-24 1.3 0.2 1.8 1.2t0.8 1.2l0.2 0.3 0.2 0.3 0.3 0.2v-4l-0.3-0.2-0.2-0.3-0.2-0.3q-0.3-0.2-2.6-4.7zm-45 75.3q-0.2-0.3 0-0.6 0.3-0.2 0.3 0.3t-0.3 0.3z" fill="#a37014" stroke="#a37014"/>
  <path d="m631.5 470.2l3.5-0.2-1.2 1.5q-1.3 1.5-7.3 31t-12.7 41.7q-6.8 12.3-8 13.6-1.3 1.2-2.8 3.7t-1.8 2.7l-0.2 0.3-0.2 0.3-0.3 0.2-0.3 0.2-0.2 0.3 0.2 0.3 0.3 0.2 0.3 1 0.2 1-2 0.2-2 0.3 2.5 0.5 2.5 0.5 8 0.5 8 0.5v0.5l-25 0.2q-25 0.3-45.5 1l-20.5 0.8h-42l-0.2-1.5-0.3-1.5v-2.5q0-2.5 2.5-14t4-18.5 5.2-11.2q3.8-4.3 7.3-8 3.5-3.8 8-5.6l4.5-1.7 1-0.5 1-0.5 2-0.5 2-0.5 1-0.5 1-0.5v-0.5l22.5-3.8q22.5-3.7 28.7-7.4 6.3-3.8 6.6-4.8 0.2-1 1.4-1.5 1.3-0.5 2-3.7 0.8-3.3 1.8-5.3t2-2.3q1-0.2 1-1.2t1.8-2q1.7-1 2-1.5l0.2-0.5 17-0.2q17-0.3 20.5-0.6z" fill="#b98c29" stroke="#b98c29"/>
  <path d="m742 618.8l2-0.3 5-0.3 5-0.2-3.2 3.5q-3.3 3.5-13.8 14t-10 14.5 6.5 10.5 5.3 9.7q-0.8 3.3-2.8 4-2 0.8-5.5 11-3.5 10.3-7 12.3t-11 2.3l-7.5 0.2v-0.5l0.2-0.3 0.3-0.2 0.3-0.2 0.2-0.3 0.2-0.3 0.3-0.2 0.3-0.2 0.2-0.3 0.2-0.3 0.3-0.2 0.5-2.5 0.5-2.5v-2q0-2-1-5t-2.7-4.8q-1.8-1.7-4.8-3.2t-11.5-3-83-2.8l-74.5-1.2-0.2-0.5-0.3-0.5-0.3-0.2-0.2-0.3 0.2-0.3 0.3-0.2 0.3-0.2 0.2-0.3-2-0.5-2-0.5-1-0.5-1-0.5-0.2-0.3-0.3-0.2-0.3-1-0.2-1-1-0.2-1-0.3 1-0.5 1-0.5 1-0.5 1-0.5v-0.5l3.2-1q3.3-1 3.6-1.2l0.2-0.3 0.2-0.3 0.3-0.2 0.3-0.2 0.2-0.3 0.2-0.3 0.3-0.2 0.3-0.2 0.2-0.3 0.2-0.3 0.3-0.2v-2l-0.3 0.2-0.2 0.3-0.2 0.3-0.3 0.2-0.5-1q-0.5-1 0.2-1.5l0.8-0.5-0.2-1q-0.3-1-0.6-2.5-0.2-1.5-1.2-1.7-1-0.3-8-6.8l-7-6.5-0.2-0.3-0.3-0.2-0.3-0.2-0.2-0.3-0.2-0.3-0.3-0.2-0.3-0.2-0.2-0.3-0.2-0.3-0.3-0.2-0.3-0.2-0.2-0.3-0.2-0.3-0.3-0.2-0.3-0.2-0.2-0.3-1-0.3-1-0.2v-2l1 0.2 1 0.3 0.2 0.3 0.3 0.2 0.3 0.2 0.2 0.3 1 0.5 1 0.5 15.5 3q15.5 3 57.5 3.5t57.5 2 33.5 1 28.2-2.2q10.3-1.8 16.3-5.3t8.7-6.3q2.8-2.7 4.3-3 1.5-0.2 1.5-1.2t2-1.2z" fill="#d9961f" stroke="#d9961f"/>
  <path d="m871 436.8v-0.3l26 0.5q26 0.5 84 6t62.5 5.8l4.5 0.2v-2l16.5 3.2q16.5 3.3 16.5 3.6v0.2l-0.5 0.2-0.5 0.3-0.2 0.3-0.3 0.2-0.3 0.2q-0.2 0.3 0.8 0.8l1 0.5 7.5 2.5q7.5 2.5 13 5.2 5.5 2.8 5.5 3.8t4.5 3.8q4.5 2.7 10.5 3.2t16.5 4.5 11.5 4.5l1 0.5 1 0.5 1 0.5h5l0.2-0.3 0.3-0.2v-1l-0.5-1-0.5-1-0.3-0.2-0.2-0.3-0.2-0.3-0.3-0.2-0.3-0.2-0.2-0.3-0.2-0.3-0.3-0.2-0.3-0.2-0.2-0.3-1-0.5-1-0.5-0.2-0.3-0.3-0.2-0.3-0.2-0.2-0.3-1-0.3-1-0.2v-2l1 0.2 1 0.3 0.2 0.3 0.3 0.2 0.3 0.2 0.2 0.3 1.5 0.5 1.5 0.5 1 0.5 1 0.5 0.2 0.3 0.3 0.2 3.3 2.5q3.2 2.5 4 4 0.7 1.5 1 1.7l0.2 0.3 0.2 0.3 0.3 0.2v6l-0.5 1-0.5 1-0.3 0.2-0.2 0.3-0.2 0.3-0.3 0.2-0.3 0.2-0.2 0.3-1 0.5q-1 0.5-2.5 1.5t-20 1.5l-18.5 0.5h-8v0.5l-1.5-0.2q-1.5-0.3-4.5-1.3l-3-1-2-0.3-2-0.2v-0.5l-1-0.5-1-0.5 3.5-0.5 3.5-0.5 1-0.5 1-0.5-2-0.5-2-0.5-2.5-0.5q-2.5-0.5-42-9.5t-79-15-82.5-8l-43-2v-0.5l19.5-1.8q19.5-1.7 21.5-2.2l2-0.5 0.2-0.3 0.3-0.2 0.3-0.2 0.2-0.3 1-0.3 1-0.2-0.2-2-0.3-2-0.5-1-0.5-1-0.3-1-0.2-1-1-0.2-1-0.3-0.2-0.3-0.3-0.2-0.3-0.2q-0.2-0.3-13.2-3.6l-13-3.2v-0.2z" fill="#b27f1f" stroke="#b27f1f"/>
  <path d="m593 571.2l25-0.2 40.5 1.2q40.5 1.3 40.5 1.6v0.2l-15 0.2q-15 0.3-64 1.8t-69 3.5l-20 2-2 0.5-2 0.5-0.2 0.3-0.3 0.2-0.3 1.5-0.2 1.5 1.5 0.2 1.5 0.3 34.5 1q34.5 1 44.5 2.5t12.5 4 4 3l1.5 0.5 1.5 0.5 1.5 0.5v0.5l-37.5-0.2-37.5-0.3 3-0.5 3-0.5h-28q-28 0-89 4.5t-94.5 8.2l-33.5 3.8-6-0.2-6-0.3-2.5-0.5-2.5-0.5 1-0.5 1-0.5 0.2-0.3 0.3-0.2 0.3-0.2 0.2-0.3 0.2-0.3 0.3-0.2 0.3-0.2 0.2-0.3 0.2-0.3 0.3-0.2 0.3-0.2 0.2-0.3 26-4.5q26-4.5 27-6.2 1-1.8 0.2-2.3-0.7-0.5 2.6-1.7 3.2-1.3 1.7-1.8t1-0.8q2.5-0.2 2.5-1.2t2.5-2.2q2.5-1.3 12-2.3t14.5-1.5l5-0.5 3.5-0.3 3.5-0.2 0.2-1 0.3-1 0.3-0.2 0.2-0.3v-0.5l49.5-2.8q49.5-2.7 60.5-3.2l11-0.5v-0.5l20.5-0.8q20.5-0.7 45.5-1z" fill="#a0700f" stroke="#a0700f"/>
  <path d="m1018.5 636h2.5l22 2.8q22 2.7 54 9.7t40.5 10.5 9.5 4l1 0.5 0.2 0.3 0.3 0.2 0.3 0.2 0.2 0.3 1 0.5 1 0.5 0.2 0.3 0.3 0.2 0.3 0.2 0.2 0.3 0.2 0.3 0.3 0.2v3l-0.3 0.2-0.2 0.3-1 0.5-1 0.5-1 0.5-1 0.5-1 0.5q-1 0.5-4 2t-15 5.2l-12 3.8-3.5-0.2q-3.5-0.3-3.7-0.6-0.3-0.2 1.2-1.7t-5.8-2.3q-7.2-0.7-6.4-1.4 0.7-0.8-25.6 0.4-26.2 1.3-54.2 3.6l-28 2.2v-0.5l0.2-0.3 0.3-0.2 0.5-1 0.5-1 0.3-0.2 0.2-0.3 0.2-0.3 0.3-0.2 0.5-1 0.5-1 0.3-0.2 0.2-0.3 0.2-0.3 0.3-0.2 0.3-0.2 0.2-0.3 4.5-3.5q4.5-3.5 10-6.5t5.7-3.3l0.3-0.2 0.3-0.2 0.2-0.3 0.2-0.3 0.3-0.2 0.3-0.2 0.2-0.3 0.2-0.3 0.3-0.2 0.3-0.2 0.2-0.3 0.2-0.3 0.3-0.2v-4l-0.3-0.2-0.2-0.3-1-0.5q-1-0.5-6-2.8-5-2.2-5-3.2v-1l-1-0.2-1-0.3-0.2-0.3-0.3-0.2-0.3-0.2-0.2-0.3 1-0.5 1-0.5 0.2-0.3 0.3-0.2 0.3-0.2 0.2-0.3 0.2-0.3 0.3-0.2 0.5-1 0.5-1 0.3-0.2 0.2-0.3 4-1.7q4-1.8 4-2.8t2.5-1z" fill="#6a2a01" stroke="#6a2a01"/>
  <path d="m915.5 626.5l-0.5-1.5 12 0.8q12 0.7 16.5 1l4.5 0.2v0.5l4.5 0.5 4.5 0.5 32 3.5q32 3.5 32 3.8v0.2h-2.5q-2.5 0-2.5 1t-4 2.8l-4 1.7-0.2 0.3-0.3 0.2-0.5 1-0.5 1-0.3 0.2-0.2 0.3-0.2 0.3-0.3 0.2-0.3 0.2-0.2 0.3-1 0.5-1 0.5 0.2 0.3 0.3 0.2 0.3 0.2 0.2 0.3 1 0.3 1 0.2v1q0 1 5 3.2 5 2.3 6 2.8l1 0.5 0.2 0.3 0.3 0.2v4l-0.3 0.2-0.2 0.3-0.2 0.3-0.3 0.2-0.3 0.2-0.2 0.3-0.2 0.3-0.3 0.2-0.3 0.2-0.2 0.3-0.2 0.3-0.3 0.2-0.3 0.2q-0.2 0.3-5.7 3.3t-10 6.5l-4.5 3.5-0.2 0.3-0.3 0.2-0.3 0.2-0.2 0.3-0.2 0.3-0.3 0.2-0.5 1-0.5 1-0.3 0.2-0.2 0.3-0.2 0.3-0.3 0.2-0.5 1-0.5 1-0.3 0.2-0.2 0.3v0.5l-0.5 0.2q-0.5 0.3-25 2.6l-24.5 2.2-7-0.2q-7-0.3-9.5-1.3t-7.3-3.7l-4.7-2.8-0.5-1-0.5-1-0.3-0.2-0.2-0.3 0.2-0.3 0.3-0.2 2-4.5q2-4.5 3.3-6.5 1.2-2 8.4-6 7.3-4 7.6-4.2 0.2-0.3 0.4-0.6l0.3-0.2 0.3-0.2 0.2-0.3 1-0.5 1-0.5 1-0.5 1-0.5 0.2-0.3 0.3-0.2v-1l-0.3-0.2-0.2-0.3-0.2-0.3-0.3-0.2-0.3-0.2-0.2-0.3-1-0.5q-1-0.5-3-1t-5.8-4.2q-3.7-3.8-7.7-8.8l-4-5-0.5-1q-0.5-1 0.8-1.5 1.2-0.5 0.7-2z" fill="#ac6e03" stroke="#ac6e03"/>
  <path d="m584 471.2l10-0.2-0.2 0.5q-0.3 0.5-2 1.5-1.8 1-1.8 2t-1 1.2q-1 0.3-2 2.3t-1.8 5.3q-0.7 3.2-2 3.7-1.2 0.5-1.4 1.5-0.3 1-6.6 4.8-6.2 3.7-28.7 7.4l-22.5 3.8-9 0.2q-9 0.3-17.5 1.8t-15.3 0.2q-6.7-1.2-8.4-1.2-1.8 0-1.8-1t-1-0.8q-1 0.3-1.5-0.4-0.5-0.8-12-6.6-11.5-5.7-11-6.2t-7.5-5-23-5-25.5 0.5l-10.5 1-4.5 0.5-4.5 0.5v0.5l-5.5 0.2q-5.5 0.3-17.5 1.6l-12 1.2-0.2-0.5-0.3-0.5-0.3-0.2-0.2-0.3-0.2-0.3-0.3-0.2-0.3-0.2-0.2-0.3-2-0.5-2-0.5v-0.5l1-0.2 1-0.3 3-0.5 3-0.5 34-3q34-3 103-6t67.5-2 15 1 26.5-0.3z" fill="#8c5d05" stroke="#8c5d05"/>
  <path d="m1112.5 683.8l3.5 0.2v0.5l-1.5 0.5-1.5 0.5-2 0.5q-2 0.5-4 1t-15.5 4.5-20.5 7.5-27 8.8l-20 5.2-3.5-0.2-3.5-0.3 1-1q1-1 2.5-1.5l1.5-0.5h-13.5q-13.5 0-27.3-0.7-13.7-0.8-19.2-2.3t-19.8-0.7q-14.2 0.7-79.7 1.7t-100.5 1.3l-35 0.2-1-0.2-1-0.3 0.2-0.3 0.3-0.2 0.3-0.2 0.2-0.3-2-0.5-2-0.5-9-0.5-9-0.5v-0.5l61-2.8q61-2.7 69-3.2l8-0.5-10-0.5-10-0.5 50.5-3.5q50.5-3.5 59-4l8.5-0.5v-0.5l24.5-2.2q24.5-2.3 25-2.6l0.5-0.2 28-2.2q28-2.3 54.2-3.6 26.3-1.2 25.6-0.4-0.8 0.7 6.4 1.4 7.3 0.8 5.8 2.3t-1.2 1.7q0.2 0.3 3.7 0.6z" fill="#7c4700" stroke="#7c4700"/>
  <path d="m793.5 224.2l0.5-0.2h0.2q0.3 0 0.3 1t-8 12.5-7.3 16q0.8 4.5 2.8 5t2.2 1.5q0.3 1 0.8 5t-5.5 12-18.3 20.2q-12.2 12.3-20.4 19l-8.3 6.8-0.3 0.2-0.2 0.3-1 0.5-1 0.5-0.2 0.3-0.3 0.2-0.3 1-0.2 1-0.2 0.5-0.3 0.5h-0.5l-0.5-0.2q-0.5-0.3-0.7-0.6l-0.3-0.2-0.3 1-0.2 1v0.2q0 0.3-1 0.8t-14.5 6.2l-13.5 5.8v-0.5h-4l-2 0.5-2 0.5-4 0.5q-4 0.5-6 0.5t-15.5-1.5-19.5-5.2q-6-3.8-6.8-16.8-0.7-13-2.4-14.2l-1.8-1.3-0.2-0.3-0.3-0.2-0.3-0.2-0.2-0.3-0.2-0.3-0.3-0.2-0.3-0.2-0.2-0.3-1-0.3-1-0.2v-2l1 0.2 1 0.3 2 0.5 2 0.5 5.2 0.7q5.3 0.8 5.6 0.6 0.2-0.3 0.7-0.6l0.5-0.2v2l2 0.2 2 0.3 12 1q12 1 22-0.5t12-2l2-0.5 1.5-0.5 1.5-0.5 0.2-0.3 0.3-0.2v-1l-0.3-1-0.2-1 1 0.8q1 0.7 1.2 1l0.3 0.2 11.5-6q11.5-6 21-13t25-22.5 20.2-21.7q4.8-6.3 5.8-6.6l1-0.2v-0.2q0-0.3 0.5-0.6l0.5-0.2 1.2-1q1.3-1 1.6-1.5l0.2-0.5v-1.2q0-0.3 0.5-0.6z" fill="#fdf97b" stroke="#fdf97b"/>
  <path d="m448.5 423.5v1.5l-0.5 1-0.5 1-0.3 0.2-0.2 0.3-0.2 0.3-0.3 0.2-0.3 0.2-0.2 0.3-0.2 0.3q-0.3 0.2-0.6 0.4-0.2 0.3-4.2 1.3l-4 1v0.5l-6 0.2q-6 0.3-23.5 1.6l-17.5 1.2 0.2-0.5 0.3-0.5 0.3-0.2 0.2-0.3 0.2-0.3 0.3-0.2 0.3-0.2 0.2-0.3 0.2-0.3 0.3-0.2 0.3-0.2 0.2-0.3 0.2-0.3 0.3-0.2 0.3-0.2 0.2-0.3 1-0.5 1-0.5-0.2-0.3-0.3-0.2-0.5-1q-0.5-1-4-7t-12.2-15.2q-8.8-9.3-16.8-12.3t-14-1.5-9.5 5.2q-3.5 3.8-4.5 3.8t-5.5 8.2q-4.5 8.3-7.7 19.6l-3.3 11.2-0.3 1-0.2 1h-3l0.2-16.5q0.3-16.5 2.8-31t2.8-16.7q0.2-2.3 2.7-4.6 2.5-2.2 2.5-3.7t10-2.5 10-2 1.5-1.2q1.5-0.3 8-3.6l6.5-3.2 2.5-0.2 2.5-0.3 4.5-1.5q4.5-1.5 12-1.5t9.5 0.7q2 0.8 2 1.8t6.5 4.2q6.5 3.3 8 4 1.5 0.8 9.3 10.3 7.7 9.5 18 26 10.2 16.5 11.2 16.5t1.2 2.5q0.3 2.5 0.3 4z" fill="#9d710f" stroke="#9d710f"/>
  <path d="m870 583.2l-18-3.2 58.5 3.2q58.5 3.3 110 9.8t71.5 14 24 9 11 3 11 3 5.5 2l1.5 0.5 1 0.5 1 0.5 0.2 0.3 0.3 0.2 0.3-0.2 0.2-0.3 0.2-0.3 0.3-0.2 0.3 0.2 0.2 0.3h3l0.2-0.3 0.3-0.2 0.3-0.2 0.2-0.3-1-0.5-1-0.5-0.2-0.3-0.3-0.2-0.3-0.2-0.2-0.3-0.2-0.3-0.3-0.2-0.3-0.2-0.2-0.3-0.2-0.3-0.3-0.2-0.3-0.2-0.2-0.3-0.2-0.3-0.3-0.2-0.3-0.2-0.2-0.3-1-0.3-1-0.2v-2l1 0.2 1 0.3 1 0.5 1 0.5 1 0.5 1 0.5 1 0.5 1 0.5 5.8 4.3q5.7 4.2 6.2 5.2l0.5 1 0.5 1 0.5 1v3l-0.5 1-0.5 1-0.5 1-0.5 1-0.3 0.2-0.2 0.3-0.2 0.3q-0.3 0.2-2.6 1.4-2.2 1.3-11.7 3.3t-24.5 0.5l-15-1.5-3-0.5-3-0.5v-0.5l7-0.2 7-0.3-1.5-0.5-1.5-0.5-1-0.5-1-0.5-1-0.5-1-0.5-3-0.5q-3-0.5-42.5-9.5t-85.5-15.5-87.5-8l-41.5-1.5v-0.5l20.5-1.2q20.5-1.3 22.5-1.8l2-0.5 2-0.3 2-0.2-0.2-3-0.3-3-0.5-1-0.5-1-0.3-0.2-0.2-0.3-1-0.5-1-0.5-0.2-0.3-0.3-0.2-0.3-0.2q-0.2-0.3-3.7-1.8t-21.5-4.8z" fill="#b2801f" stroke="#b2801f"/>
  <path d="m633 337.5l14 6 1.5 0.5 1.5 0.5 1.5 0.5 1.5 0.5v0.5l-7.5 0.8q-7.5 0.7-9.3 5-1.7 4.2-3.7 24.7t-1.5 31 7.2 14.3q6.8 3.7 36.3 4.7t37.5 1.5l8 0.5-0.2 0.3-0.3 0.2-0.3 0.2-0.2 0.3-0.2 0.3-0.3 0.2h-0.5l-32 0.2q-32 0.3-58.5 0.6l-26.5 0.2v-0.5l0.2-0.3 0.3-0.2 0.3-0.2 0.2-0.3-1-0.5-1-0.5 0.2-0.3 0.3-0.2 0.3-1 0.2-1 1-0.2 1-0.3-0.2-0.3-0.3-0.2-0.3-0.2-0.2-0.3-5.5-0.5q-5.5-0.5-14.5-1.8-9-1.2-9-2.2t-5-2.8q-5-1.7-7.8-7.4-2.7-5.8-3.2-16.8t5-36.5 9-33.5 7.2-10.2q3.8-2.3 7.8-0.8t18.5 10.5 28.5 15z" fill="#946007" stroke="#946007"/>
  <path d="m395 428l0.5 1 0.3 0.2 0.2 0.3-1 0.5-1 0.5-0.2 0.3-0.3 0.2-0.3 0.2-0.2 0.3-0.2 0.3-0.3 0.2-0.3 0.2-0.2 0.3-0.2 0.3-0.3 0.2-0.3 0.2-0.2 0.3-0.2 0.3-0.3 0.2-0.3 0.5-0.2 0.5h-0.2q-0.3 0-32.6 3.5l-32.2 3.5h-8l0.2-1 0.3-1 3.3-11.2q3.2-11.3 7.7-19.6 4.5-8.2 5.5-8.2t4.5-3.8q3.5-3.7 9.5-5.2t14 1.5 16.8 12.3q8.7 9.2 12.2 15.2t4 7z" fill="#cda832" stroke="#cda832"/>
  <path d="m811.5 200.2l0.5-0.2 1.5 4.2q1.5 4.3 3.5 6.3t2.8 2.3q0.7 0.2 1.2 2.7t0.5 4v1.5l0.7 0.2q0.8 0.3 1 0l0.3-0.2 0.3-0.2 0.2-0.3 0.2-0.3 0.3-0.2 0.3-0.2 0.2-0.3 3-3.5q3-3.5 7-5t9.5-1 11.3 4.2q5.7 3.8 6 4.8 0.2 1 5 5 4.7 4 9.2 11t8.5 16 4.7 16.8q0.8 7.7 1.6 8.4 0.7 0.8 0.7 9.3t0 10-0.5 2.5l-0.5 1-0.5-1q-0.5-1-2.8-1-2.2 0-2.4 1.5-0.3 1.5-0.6 0.5-0.2-1-1.2-0.8-1 0.3-2 3-1 2.8-2 2.8t-2.2 5.5l-1.3 5.5-0.5-1q-0.5-1-1.5-2.5l-1-1.5-0.5 1-0.5 1-0.5 3.5-0.5 3.5-0.5 3.5-0.5 3.5h-0.5l-0.2-1-0.3-1-0.5-2.5-0.5-2.5-0.5-2q-0.5-2-2.5-9.5t-8.3-17.3q-6.2-9.7-12.7-13.7t-15.5-7-20.5-2-32.5 21-31.5 28l-10.5 8-0.2 0.3-0.3 0.2-0.3 0.2-0.2 0.3-1 0.5-1 0.5-0.2 0.3-0.3 0.2h-0.5l-0.2 0.5-0.3 0.5h-0.5l-0.5 0.2-0.5 0.3-0.2 0.3-0.3 0.2h-0.5l0.2-1 0.3-1 0.3-0.2 0.2-0.3 1-0.5 1-0.5 0.2-0.3 0.3-0.2 0.3-0.2 0.2-0.3 1-0.5 1-0.5 0.2-0.3 0.3-0.2 8.3-6.8q8.2-6.7 20.4-19 12.3-12.2 18.3-20.2t5.5-12-0.8-5q-0.2-1-2.2-1.5t-2.8-5q-0.7-4.5 3.8-11t4.2-8.3q-0.2-1.7-0.2-2v-0.4q0-0.3 0.5-0.6l0.5-0.2h0.2q0.3 0 0.6-0.5l0.2-0.5h0.2q0.3 0 0.6-0.5l0.2-0.5 1.2-2q1.3-2 1.6-2h0.2v-0.2q0-0.3 0.5-0.6l0.5-0.2 8.5-11.8q8.5-11.7 9-12zm-18.5 27q1-0.2 0.8 0.8-0.3 1-1.6 1.5-1.2 0.5-0.7-0.7 0.5-1.3 1.5-1.6z" fill="#a57219" stroke="#a57219"/>
  <path d="m247.5 682.8l0.5-0.8h0.5l0.3 0.2 0.2 0.3 2.5 0.5 2.5 0.5 55 8.5q55 8.5 74 10.5t99 6 107 4.5 38.5 0.8l11.5 0.2-0.2 1-0.3 1-0.3 0.2-0.2 0.3-1.5 0.5-1.5 0.5-5.5 0.5-5.5 0.5 20.5 0.5 20.5 0.5 1 0.5 1 0.5 3 0.5 3 0.5-1 0.5-1 0.5-1.5 0.5-1.5 0.5h-34q-34 0-55-0.5t-63-3-119.5-5l-77.5-2.5 1 0.3 1 0.2v2l2 0.2 2 0.3 0.2 0.3 0.3 0.2 0.3 0.5 0.2 0.5-3-0.2q-3-0.3-6-0.8t-16.5-4-27.7-11.8q-14.3-8.2-19.6-10.4l-5.2-2.3-2-0.5-2-0.5-1.5-0.5q-1.5-0.5-1.5-0.8v-0.4q0-0.3 3-0.8t3.5-1.2z" fill="#ac7a1b" stroke="#ac7a1b"/>
  <path d="m138.2 217.5l-8.2-30.5h2.2q2.3 0 5 2.5 2.8 2.5 3.3 1.7 0.5-0.7 1.3 0.6 0.7 1.2 1.4 0.4 0.8-0.7 4.3 9 3.5 9.8 5.7 10.3 2.3 0.5 3-0.7 0.8-1.3 9 34.4 8.3 35.8 8.3 41.8t-1 7-1.5 0-0.5 9.5 1.5 28 1 39.5-0.8 22.2q-0.2 0.3-0.4 0.6l-0.3 0.2v2l0.3 0.2 0.2 0.3 0.2 0.3 0.3 0.2 0.3 0.2 0.2 0.3 1.5 0.3q1.5 0.2 2.3-1.3 0.7-1.5 0.4 1-0.2 2.5 3.3 0.3 3.5-2.3 4.5-2.3h1l0.2 0.3 0.3 0.2 2.5 6q2.5 6 6.2 32.5 3.8 26.5 4.8 26.5t-0.2 4.5q-1.3 4.5-1.8 5.5l-0.5 1-0.3 0.2-0.2 0.3-0.2 0.3-0.3 0.2-0.3 0.2-0.2 0.3-0.2 0.3-0.3 0.2-0.3 0.2-0.2 0.3-0.2 0.3q-0.3 0.2-0.6 0.7l-0.2 0.5h-0.2q-0.3 0-0.6 0.5l-0.2 0.5-2.2 2q-2.3 2-2.6 2.2l-0.2 0.3-0.2 0.3-0.3 0.2-0.3 1-0.2 1-1 0.2-1 0.3-0.2 0.3-0.3 0.2-0.5 1-0.5 1-0.3 1-0.2 1 2-0.2q2-0.3 3.5-0.6l1.5-0.2v0.5l-0.2 0.3-0.3 0.2-0.3 0.2-0.2 0.3-1 0.5-1 0.5-0.2 0.3-0.3 0.2-0.3 0.2-0.2 0.3-0.2 0.3-0.3 0.2-0.3 0.2-0.2 0.3-0.2 0.3-0.3 0.2-0.3 0.2-0.2 0.3-3.5 0.3-3.5 0.2-0.2-1.5-0.3-1.5-0.5-1-0.5-1-0.3-0.2-0.2-0.3 0.2-0.3 0.3-0.2v-1.5q0-1.5-0.3-2.5l-0.2-1 0.2-0.5q0.3-0.5 3.6-2.5 3.2-2 2-10.5-1.3-8.5-8.6-36.5-7.2-28-9.4-29-2.3-1-6.8-8t-11.5-24.5-15-35.5l-8-18-0.3-0.2-0.2-0.3v-0.5l0.2-1 0.3-1 0.3 0.2 0.2 0.3 1 0.3 1 0.2v1q0 1 1 1h1l0.5-1.8q0.5-1.7 2-1.2t2.5 0.8l1 0.2v-1q0-1 1-1.2l1-0.3 1-0.3 1-0.2-0.2-2.5q-0.3-2.5-2.3-6.5t-6-14.5l-4-10.5-0.5-1.5-0.5-1.5v-3l0.3 0.2 0.2 0.3 0.2 0.3 0.3 0.2 0.3 0.2 0.2 0.3 1 0.5 1 0.5 0.2 0.3 0.3 0.2 0.5-1.5 0.5-1.5 0.3 0.2 0.2 0.3 1 0.3 1 0.2v0.5l0.2 0.3 0.3 0.2 9.5 14.5q9.5 14.5 10 15.5l0.5 1 0.3 0.2 0.2 0.3 0.2 0.3 0.3 0.2 0.5 1 0.5 1 0.3 0.2 0.2 0.3 0.2 0.3 0.3 0.2 0.3 0.2 0.2 0.3 0.2 0.3 0.3 0.2 0.3 0.2 0.2 0.3 0.2 0.3 0.3 0.2 0.3 0.2 0.2 0.3 0.2 0.3 0.3 0.2v-6l-0.5-4q-0.5-4-5-29.5t-12.8-56z" fill="#fac950" stroke="#fac950"/>
  <path d="m753.5 616.8l10.5 0.2v0.2q0 0.3-5 0.6l-5 0.2-5 0.2-5 0.3-2 0.3q-2 0.2-2 1.2t-1.5 1.2q-1.5 0.3-4.3 3-2.7 2.8-8.7 6.3t-16.3 5.3q-10.2 1.7-28.2 2.2t-33.5-1-57.5-2-57.5-3.5l-15.5-3-1-0.5-1-0.5-1-0.3-1-0.2-0.2-0.5q-0.3-0.5-0.6-0.5h-0.2l-0.5-0.2q-0.5-0.3-3.5-1.8t-25-2l-22-0.5v-0.5h9l1.2-0.5q1.3-0.5 1.6-0.5h0.2l57-1.8q57-1.7 135-1.7t88.5 0.3z" fill="#fdf274" stroke="#fdf274"/>
  <path d="m238 505.2l6-0.2-0.2 41q-0.3 41-1.6 47.2-1.2 6.3-8.7 9.3t-5.3 3.7q2.3 0.8-7.4 5-9.8 4.3-14.8 5.8t-6 1.8l-1 0.2v-1q0-1 1-1.2 1-0.3 2-2 1-1.8-0.5-1.8t0.3-27.5q1.7-27.5 4.4-47.5l2.8-20-1-0.2-1-0.3-1-0.5-1-0.5h-4l-5.8 3.7q-5.7 3.8-6 4l-0.2 0.3-0.2 0.3-0.3 0.2-0.3 0.2-0.2 0.3-1 0.5-1 0.5-0.2 0.3-0.3 0.2-0.3 0.2-0.2 0.3-0.2 0.3-0.3 0.2-0.3 0.2-0.2 0.3-0.2 0.3-0.3 0.2-0.3 0.2-0.2 0.3-0.2 0.3-0.3 0.2v-3l0.3-0.2 0.2-0.3 0.2-0.3 0.3-0.2 0.3-0.2 0.2-0.3 0.2-0.3 0.3-0.2 0.3-0.2 0.2-0.3 0.2-0.3 0.3-0.2 0.3-0.2 0.2-0.3 0.2-0.3 0.3-0.2 0.3-0.2 0.2-0.3 0.2-0.3 0.3-0.2 0.3-0.2q0.2-0.3 3.4-2.6 3.3-2.2 15.6-7.7l12.2-5.5v0.5l1 0.5 1 0.5h4l3.5-1q3.5-1 9.5-1.3z" fill="#d7a234" stroke="#d7a234"/>
  <path d="m911.2 91h-0.2l-1.5-0.2q-1.5-0.3-10.5-0.3t-16-2-9.8-4.3q-2.7-2.2-4.4-3.7l-1.8-1.5-0.2-2q-0.3-2-2.3-6t-3.5-11-1-13.5 5.2-14.3q4.8-7.7 10-11.4 5.3-3.8 6.8-6.8t5.8-6.2q4.2-3.3 5.7-3.8t2-0.8l0.5-0.2 7.5 0.2q7.5 0.3 11.5 2.8t6.8 6.2q2.7 3.8 3 5.8 0.2 2-2 3-2.3 1 1.7 5t7 11.5 2.5 16-5.2 16.7q-4.8 8.3-11 14.6-6.3 6.2-6.6 6.2z" fill="#a16f11" stroke="#a16f11"/>
  <path d="m701.8 297.5l0.2 0.5 0.2 1 0.3 1v1l-0.3 0.2-0.2 0.3-1.5 0.5-1.5 0.5-2 0.5q-2 0.5-12 2t-22 0.5l-12-1-2-0.3-2-0.2v-2l0.2-1 0.3-1 0.3-0.2 0.2-0.3 5.8-13.7q5.7-13.8 5.2-16.8t-2.5-5.5-3.3-6.3q-1.2-3.7-4.4-8-3.3-4.2-4.3-7.2t-0.5-12 3-14 7.8-9.2q5.2-4.3 13.7-6.8t11.3-2.2q2.7 0.2 11 5.4 8.2 5.3 12 10 3.7 4.8 5.2 9.3t1 11.5-2.5 11-5.5 8-5.8 8.2q-2.2 4.3-3 5-0.7 0.8-0.2 5.8t5 15 4.8 10.5z" fill="#bf8c24" stroke="#bf8c24"/>
  <path d="m32.8 154.8l0.2-0.3 2.2 0.7q2.3 0.8 3.3 1.8t2.3 5.8q1.2 4.7 11.2 4.2t11-1.5 2.8-0.7q1.7 0.2 3 3.4 1.2 3.3 4.4 5 3.3 1.8 2.8 8.8t-1 8.5 15.5 25.5 20.3 32.2q4.2 8.3 10.4 15 6.3 6.8 6.8 7.8l0.5 1 0.3 0.2 0.2 0.3 0.2 0.3 0.3 0.2 0.3 0.5 0.2 0.5-1-0.2-1-0.3-0.2-0.3-0.3-0.2-0.5 1.5-0.5 1.5-0.3-0.2-0.2-0.3-1-0.5-1-0.5-0.2-0.3-0.3-0.2-0.3-0.2-0.2-0.3-0.2-0.3-0.3-0.2v3l0.5 1.5 0.5 1.5 4 10.5q4 10.5 6 14.5t2.3 6.5l0.2 2.5-1 0.2-1 0.3-1 0.3q-1 0.2-1 1.2v1l-1-0.2q-1-0.3-2.5-0.8t-2 1.2l-0.5 1.8h-1q-1 0-1-1v-1l-1-0.2-1-0.3-0.2-0.3-0.3-0.2-0.3 1-0.2 1h-0.2q-0.3 0-14.3-27t-31.7-57q-17.8-30-23.8-30.8-6-0.7-10.2-4-4.3-3.2-3-6.2 1.2-3-4.3-4.5t-5.7-2.5q-0.3-1-5-4.8-4.8-3.7-6-7.4-1.3-3.8 0.4-5 1.8-1.3 4.8-6.6 3-5.2 6.5-5.4l3.5-0.3 0.2-0.3 0.3-0.2 0.3-0.2z" fill="#dba533" stroke="#dba533"/>
  <path d="m469.2 88h-0.2l-0.2-1q-0.3-1-0.6-1.2-0.2-0.3-4.2 1.7t-19 2.7l-15 0.8-8.5-7.8q-8.5-7.7-7.3-10.4 1.3-2.8-1.4-7.6-2.8-4.7-4.6-5-1.7-0.2-1.2-10.7t5-17.5 4.5-11.5 4.7-10.3q4.8-5.7 7.8-6.7t10-0.5 13.2 4.8q6.3 4.2 6.6 6.7 0.2 2.5 5.4 5.5 5.3 3 9.8 10t5.5 10.5 0.5 12-3.2 15.7q-2.8 7.3-4.8 13.3t-2.2 6.3q-0.3 0.2-0.6 0.2z" fill="#a16d10" stroke="#a16d10"/>
  <path d="m1243.5 129.8l-3.5 0.2 0.2 1q0.3 1 0.6 1.5l0.2 0.5v1q0 1-12-3.5l-12-4.5v-1l-0.2-0.5q-0.3-0.5-0.6-0.5h-1.2v-0.2q0-0.3-6-3l-6-2.8-0.5-1q-0.5-1 0.5-1t1.5-2.8q0.5-2.7-0.7-15-1.3-12.2 1.4-18.4 2.8-6.3 9.3-12.3t15-8.3q8.5-2.2 8.5-3.7t6.5-4.3q6.5-2.7 12-2.2t9.7 4.8q4.3 4.2 4 8-0.2 3.7-2.7 4.7t-0.5 2.3q2 1.2 5.2 10.2 3.3 9 2.8 17.5t-3.8 14.3q-3.2 5.7-9.2 10.7t-10.5 6.5-8 1.8z" fill="#9d6c10" stroke="#9d6c10"/>
  <path d="m295.2 237l-2.2 3-0.5 0.2q-0.5 0.3-0.7 2-0.3 1.8-1.6 2.6-1.2 0.7-5.4 1l-4.3 0.2 1.5 18q1.5 18 1.5 28.5v10.5l-0.3-0.2-0.2-0.3-0.2-0.3-0.3-0.2-0.3-0.2-0.2-0.3-0.2-0.3-0.3-0.2-0.3-0.2-0.2-0.3-1-0.3-1-0.2v-2l-1-0.2-1-0.3-0.2-0.3-0.3-0.2-0.3-0.2q-0.2-0.3-2.7-3.6l-2.5-3.2-0.2-3.5-0.3-3.5-0.5-5q-0.5-5-2.2-16.5-1.8-11.5-4.8-12.7-3-1.3-4.5-3.6-1.5-2.2-5-3.4-3.5-1.3-9.7-7.6-6.3-6.2-9.3-15.2t-2.5-13.5 2.5-8.5 2-9 1-7 5.3-5.2q4.2-3.3 10.7-3.8t14 2.5 14.5 6.5 12.2 10.2q5.3 6.8 5.8 16.3t-1 13-1.5 8.5-2.3 8z" fill="#916108" stroke="#916108"/>
  <path d="m296 450.5h4l0.2 0.3 0.3 0.2 0.3 1 0.2 1-1.5 0.2-1.5 0.3-0.2 0.3-0.3 0.2-0.3 0.2-0.2 0.3-2 0.5q-2 0.5-3.5 1l-1.5 0.5-0.2 0.3-0.3 0.2-0.3 0.2-0.2 0.3-0.2 0.3-0.3 0.2-0.3 0.2-0.2 0.3-0.2 0.3-0.3 0.2-0.3 0.2-0.2 0.3-0.2 0.3-0.3 0.2-0.3 0.2-0.2 0.3 0.2 0.3 0.3 0.2 0.3 0.2 0.2 0.3 17.5-0.5q17.5-0.5 29.5-2t23-1 10.5 1 0.7 1.2q1.3 0.8 1.6 1.3l0.2 0.5-2.5 0.2q-2.5 0.3-26.5 4-24 3.8-24 5.3t-4 2.3l-4 0.7-1 0.5-1 0.5-1.5 0.5-1.5 0.5 11 0.5 11 0.5-4 0.5-4 0.5-3 0.5-3 0.5 3 0.5 3 0.5 2 0.5 2 0.5-0.2 0.3-0.3 0.2-0.3 0.2-0.2 0.3-0.2 0.3-0.3 0.2-0.3 0.5-0.2 0.5-2 0.2-2 0.3-3.5 0.5q-3.5 0.5-15.5 1.5t-26 2.7l-14 1.8 0.2-0.5q0.3-0.5 0.6-1.5 0.2-1-16.3-1.2-16.5-0.3-22-1.3t-14-1.5-12 1.2l-3.5 1.8-1 0.2-1 0.3v0.5h-5l0.2-1 0.3-1 0.5-1 0.5-1 0.3-0.2 0.2-0.3 1-0.3 1-0.2 0.2-1 0.3-1 0.3-0.2 0.2-0.3 0.2-0.3q0.3-0.2 2.6-2.2l2.2-2 0.5-0.2q0.5-0.3 0.5-0.6v-0.2l1-0.2 1-0.3 1-0.5 1-0.5 1-0.5 1-0.5 5.5-2.3q5.5-2.2 5.5-3.2t-1.5-1.2q-1.5-0.3 15.7-6 17.3-5.8 17.6-5.8h3.2q3 0 3 1t6 0.8q6-0.3 7.5-1.3t0-1.5 0.5-1 3-0.8l1-0.2v0.5l12.5-1q12.5-1 16.5-1z" fill="#9c6a0c" stroke="#9c6a0c"/>
  <path d="m431 432.2l6-0.2 1 0.2 1 0.3 1.5 0.5 1.5 0.5 1.5 0.5 1.5 0.5 14.5-0.5q14.5-0.5 53.5-0.8l39-0.2v0.2q0 0.3-17.5 1.8l-17.5 1.5-0.2 0.3-0.3 0.2-0.3 0.2-0.2 0.3-1 0.3-1 0.2v2l1.5 0.2 1.5 0.3 44.5 1.5q44.5 1.5 44.5 1.8v0.2l-14 0.2q-14 0.3-15.5 0.8t-23 2-102.5 8.2l-81 6.8-0.2-0.5q-0.3-0.5-1.6-1.3-1.2-0.7-0.7-1.2t-10.5-1-23 1-29.5 2l-17.5 0.5-0.2-0.3-0.3-0.2-0.3-0.2-0.2-0.3 0.2-0.3 0.3-0.2 0.3-0.2 0.2-0.3 0.2-0.3 0.3-0.2 0.3-0.2 0.2-0.3 0.2-0.3 0.3-0.2 0.3-0.2 0.2-0.3 0.2-0.3 0.3-0.2 0.3-0.2 0.2-0.3 1.5-0.5q1.5-0.5 3.5-1l2-0.5 0.2-0.3 0.3-0.2 0.3-0.2 0.2-0.3 1.5-0.3 1.5-0.2-0.2-1-0.3-1-0.3-0.2-0.2-0.3h-4q-4 0-16.5 1l-12.5 1v-0.5l2-0.2 2-0.3 2.5-0.5 2.5-0.5 18-3q18-3 21.5-3.5l3.5-0.5 3-0.5 3-0.5v-0.5l32.2-3.5q32.3-3.5 32.6-3.5h0.2l17.5-1.2q17.5-1.3 23.5-1.6z" fill="#986909" stroke="#986909"/>
  <path d="m1229.5 263.2l0.5-0.2 0.2 1.5q0.3 1.5 0.8 1t-7 16-9 22.5l-1.5 6 0.5 1 0.5 1 0.3 0.2 0.2 0.3h3l0.2-0.3 0.3-0.2 0.3-0.2 0.2-0.3 1-0.3 1-0.2 0.2 1 0.3 1 0.3 1 0.2 1 1-0.2 1-0.3h2v0.5l-7.2 15.5q-7.3 15.5-16.3 38t-13.3 28.7q-4.2 6.3-6.4 8-2.3 1.8-9.8 30.3t-8.2 35.3q-0.8 6.7 6 12 6.7 5.2 10.2 10.2t4 6.5 0.8 2.5l0.2 1h-0.2q-0.3 0-2.6 3.8-2.2 3.7-6.7 6-4.5 2.2-4 0.2t-0.7-1q-1.3 1-4.3 3.5t-3.7 3.3q-0.8 0.7-0.6 2.4l0.3 1.8 0.3 0.2 0.2 0.3 0.2 0.3 0.3 0.2 0.3 1 0.2 1-0.5-0.2-0.5-0.3-0.2-0.3-0.3-0.2-0.3-0.2-0.2-0.3-0.2-0.3-0.3-0.2-0.3-0.2-0.2-0.3-0.2-0.3-0.3-0.2-0.3-0.2-0.2-0.3-0.2-0.3q-0.3-0.2-3-2-2.8-1.7-18.8-8.7l-16-7-1.5-0.5-1.5-0.5-1.5-0.5-1.5-0.5-1-0.3-1-0.2v-0.5h8l18.5-0.5q18.5-0.5 20-1.5t2.5-1.5l1-0.5 0.2-0.3 0.3-0.2 0.3-0.2 0.2-0.3 0.2-0.3 0.3-0.2 0.5-1 0.5-1v-6l-0.3-0.2-0.2-0.3-0.2-0.3q-0.3-0.2-1-1.7-0.8-1.5-4-4l-3.3-2.5-0.3-0.2-0.2-0.3-1-0.5-1-0.5-1.5-0.5-1.5-0.5-1-0.3-1-0.2-0.2-0.5q-0.3-0.5-0.6-0.5h-0.2l-0.5-0.2q-0.5-0.3-3.3-3-2.7-2.8-2.7-10.3t6-37l6-29.5 0.5-1 0.5-1 0.5-1 0.5-1 0.3-0.2 0.2-0.3 0.2-0.3 0.3-0.2 0.3 0.2 0.2 0.3 0.2 0.3 0.3 0.2 0.3 0.2 0.2 0.3 1.5 1.5q1.5 1.5 3.7 2.2 2.3 0.8 2.6 1l0.2 0.3 0.2 0.3 0.3 0.2 0.3 0.2 0.2 0.3 0.5 0.3 0.5 0.2v0.5h4l0.2-0.3 0.3-0.2 0.5-2.5 0.5-2.5v-1.5q0-1.5 0-16t2.5-24.5 5-21.5 3.2-12.5l0.8-1 0.2 2 0.3 2 0.3-0.2 0.2-0.3 0.2-0.3 0.3-0.2 0.3-0.2 0.2-0.3 0.2-0.3 0.3-0.2 0.5-1 0.5-1 0.3-0.2 0.2-0.3 0.2-0.3 0.3-0.2 0.5-1 0.5-1 14.3-21.8q14.2-21.7 16.4-23 2.3-1.2 2.6-2.2 0.2-1 1.7-1.8 1.5-0.7 2-1z" fill="#facf58" stroke="#facf58"/>
  <path d="m882.8 126.8l0.2-0.3 0.2-0.3 0.3-0.2 0.3 0.2 0.2 0.3 0.2 0.3 0.3 0.2 0.3 0.2 0.2 0.3 1 0.5 1 0.5 0.2 0.3 0.3 0.2 0.5 1 0.5 1 4 20.5q4 20.5 4.5 23l0.5 2.5 0.5 2.5 0.5 2.5h0.5l5.8 24.5q5.7 24.5 14.2 48.5t18 43 16.2 28.2q6.8 9.3 15.3 16.3t17.5 11.5 13 5.5 11 1.3l7 0.2v0.5l0.2 0.3 0.3 0.2 0.3 0.2 0.2 0.3-2.5 0.5-2.5 0.5h-5.5q-5.5 0-9-0.5t-12.5-4-16-10.5-16.5-18-20-29-20.5-45.3l-10-27.2-0.2-1-0.3-1-0.5-2-0.5-2-0.5-2.5q-0.5-2.5-2-8t-9-42.5l-7.5-37-0.3-0.2-0.2-0.3 0.2-0.3 0.3-0.2 0.3-1 0.2-1h-2l0.2-1 0.3-1 0.3-0.2 0.2-0.3 0.2-0.3 0.3-0.2 0.3-0.2z" fill="#642401" stroke="#642401"/>
  <path d="m298 678.8l4 0.2 26 3.8q26 3.7 78 7.7t67.5 4 19.5 0.3l4 0.2 43 2.2q43 2.3 57 2.6l14 0.2v0.5l-6 0.5q-6 0.5-7 1l-1 0.5-4.5 0.5-4.5 0.5 23 0.5q23 0.5 58 0.8l35 0.2v0.5l9 0.5 9 0.5 2 0.5 2 0.5-0.2 0.3-0.3 0.2-0.3 0.2-0.2 0.3 1 0.3 1 0.2v0.5l1.5 0.5 1.5 0.5-2.5 0.5-2.5 0.5-3.5 0.5q-3.5 0.5-43 1.2l-39.5 0.8-11.5-0.2q-11.5-0.3-38.5-0.8t-107-4.5-99-6-74-10.5l-55-8.5-2.5-0.5-2.5-0.5-0.2-0.3-0.3-0.2h-0.5l-0.2-0.5-0.3-0.5-0.3-0.2-0.2-0.3 4-0.5 4-0.5 3-0.3q3-0.2 3.5-1.4 0.5-1.3 16.5-0.3t20 1.3z" fill="#bb8416" stroke="#bb8416"/>
  <path d="m1312.2 177.8l0.3 0.2v3l-0.3 0.2-0.2 0.3-0.2 0.3q-0.3 0.2-0.6 1.2-0.2 1-2.7 1.5l-2.5 0.5v2l2-0.2q2-0.3 4.5-0.3h2.5l-0.2 0.3-0.3 0.2-0.3 0.2-0.2 0.3-0.2 0.3-0.3 0.2-0.3 0.2-0.2 0.3-0.2 0.3-0.3 0.2-0.3 0.2-0.2 0.3-2 0.3-2 0.2-0.2 4q-0.3 4-2.3 6t-8.3 3.5q-6.2 1.5-20.7 24.3-14.5 22.7-32.3 55l-17.7 32.2h-0.5v-0.5h-2l-1 0.3-1 0.2-0.2-1-0.3-1-0.3-1-0.2-1-1 0.2-1 0.3-0.2 0.3-0.3 0.2-0.3 0.2-0.2 0.3h-3l-0.2-0.3-0.3-0.2-0.5-1-0.5-1 1.5-6q1.5-6 9-22.5t7-16-0.8-1l-0.2-1.5 13.8-24.5q13.7-24.5 21.2-35t7.8-14.5q0.2-4 1.4-3.5 1.3 0.5 1.6-2 0.2-2.5 2.2-1.7 2 0.7 3.5 0.7h1.5l1-0.5 1-0.5 0.2-0.3 0.3-0.2 0.3-1 0.2-1-1-0.2q-1-0.3-2-0.8t-1.2-2.2l-0.3-1.8 0.5-2.5 0.5-2.5 0.3-0.2 0.2-0.3 0.2-0.3 0.3-0.2 0.3 0.2 0.2 0.3 4.8-0.3q4.7-0.2 6.4-2 1.8-1.7 7.3 2.8t7.5 6.5 2.2 2.3zm-24 4q-0.2-0.3 0-0.6l0.3-0.2v0.5q0 0.5-0.3 0.3z" fill="#f7dc6c" stroke="#f7dc6c"/>
 </g>
</svg>
