<svg xmlns="http://www.w3.org/2000/svg" viewBox="0 0 1346 743">
  <defs />
  <g fill-rule="evenodd" stroke-width=".5">
    <path fill="#724200" stroke="#724200"
      d="M469 87v4l23 44 23 42 2 3 2 3 4 6 4 7 3 5 3 4 1 1 1 3 3 3 13 17 21 25q9 10 22 21t24 18 11 7h0v0l1 1h0l1 1h0v1h1v1h1l2 2q2 1 2 14 1 13 7 17 6 3 20 5t15 1 6 0l4-1h2l2-1h4v1h0-1l-2 1h-2l-1 1h-2l-2 1-18 1h-16v-1h-1l-2-1h-1l-2-1-14-6q-14-6-28-15t-19-10-8 1q-3 2-7 10t-9 33-5 37 3 17q3 5 8 7l5 3 9 2 15 2h5v1h1l-1 1h-1v2h-1 0l1 1h1v1h0-1 0v1h-3l-25 1-21 1h-39l-53 1h-16l-2-1h-1l-2-1h-2v-1l4-1 4-1h1v-1h1v-1h1v-1l1-1v-2l-1-4-1-2-11-17-18-26-9-10-8-4-7-4-2-2-9-1q-7 0-12 2l-5 1-2 1h-3v-1l1-1h0v-1h1v-1h1v-1h-1l-1-1h1v-1h1v-1h1l8-7q7-6 16-18t15-23q7-11 7-20t1-9l1-1-1-6-1-6-1-10v-14l1-4v-2l1-1v-1l-1-2v-4l3-7 8-32q6-26 10-56t2-31l-2-1h-1v-1h0l-1-1v-1l15-1q15-1 19-3t4-1l1 1z" />
    <path fill="#fdfd9f" stroke="#fdfd9f"
      d="M634 472l1-2 73 1 122 3 51 3h2l3 9 4 26q3 18 3 39v23h0l-2 1H777v1h-4l-39-1-35-1v0l-40-2-41-1v-1h-8l-8-1h-2l-3-1h4v-2h-1v-1h1v-1h0l2-3q1-3 3-3l8-14q7-12 13-42t7-31z" />
    <path fill="#a47418" stroke="#a47418"
      d="M845 147h0l-1 5-1 10q-1 5 1 10l2 6 1 1-1 4v2h1v-1h1l4-2q4-2 11-2t11 5q5 6 5 8l2 3 2 1 3 4 2 3 1 1v2l4 6q2 6 3 5t1 1 1 2l1 2h0v1h1v1l1 1v1l1 1h0l1 1h0l10 27q10 27 21 45t20 30 16 18 16 10 13 4 9 1h5l3-1h2v-1h-1 0v-1h5v1h1v-2h3l-2-1q-2 0 3-16t3-15v-1h1v-1h1l1-1h1l-2-1h-3v-1h1v-1l9-4q8-4 10-3t12-5 22-17 22-22l10-11h0v-1h1v-1h1v-1h1v-1h1v-1h1v-1 0l1-1h1v2l-1 1v1l-1 1v1h-1 0v1h-1l-1 4v4l1 2-1 4q-1 2 3 3l6 3 1 14v15l-5 29-6 35-2 12v3h-1 0v1h-1v5l-1 1v1h-1v-10l1-22q0-12-2-19t-5-10q-2-4-6-5t-8 2-8 5l-5 4-6 8-13 26q-9 18-14 42t-4 24l1 2 2 2 2 1 2 1h1v2h-4l-63-6q-58-6-84-6h-26v0h-1l-22-2-20-2-1-1h-2v0l3-1h2v-1h-1 0l17-1 18-1 6-4q3-3 3-9t-2-47l-2-42h1v-3l1-4v-3l1-4v-1l1-1 1 2 1 2 1 1 1-5 2-6 2-3 2-3 1 1h1q0-2 2-2l3 1 1 1v-1l1-2v-10l-1-10-2-8q-1-8-5-17t-8-16-9-11l-5-5-6-5q-6-4-12-4t-9 1-7 5l-3 4h0-1 0v1h-1v3h-2v-4-4l-1-3-3-2-4-7-1-4 16-26 17-27z" />
    <path fill="#fdfd91" stroke="#fdfd91"
      d="M867 317l1 2v3l1 2v2l2 42q3 42 2 47t-3 9-6 4l-18 1-17 1h1l-2 1-3 1v0h-29l-53-1-25-1h1v-1h1l-8-1-37-1q-29-1-37-5-6-4-7-14t2-31 3-25q2-4 10-5l7-1h16l18-1h2l2-1h1l2-1h2l1-1h0l14-6 14-6 1-1v0h1l1-1h1v-1h1l1-1h1v-1h1l11-8 31-28q21-20 33-21t20 2 16 7 12 13q7 10 9 17t2 10z" />
    <path fill="#865300" stroke="#865300"
      d="M899 179v-4l2 1h5l2 2h1l2-1h3l3 8 2 8q-1-1 1-3v-2h0l1 2 1 2 9 29q10 28 19 45t17 28 17 17 9 7 3 1h2v1h1l1 1 1 1 5 1q5 2 13 1t8-1 2-1h1v1h-1 0l3 1 2 1h-1l-1 1h0-1 0l-1 1v1l-3 16-3 15h2l-1 1h-2v1l-1 1h0l-2-1h-10l-11-1-13-6-17-11q-8-6-16-17l-16-28q-10-19-18-43t-14-48l-6-25v-3z" />
    <path fill="#825400" stroke="#825400"
      d="M135 102h1v6q0 5 2 5t2 1q0 2 1 1v7q-1 7 46 68t62 77l15 17v1h1v1h0l1 1v1h1v1h1v1h1v1h2v-1l2 3 3 4h1v1h2v2h1l1 1h1v1h1v1h0v-10l-1-29-2-18h5l5-1 2-3v-2h1v1l2 1q2 0 9 10l25 35 19 25v1h1v1h0l1 1h0v1h1v1h-1l-1 1h-1l-1 1h-1l-7 3q-6 2-13 2t-17-3-12-4-6 0-12-9-26-22-28-31l-16-17-3-2-5-7-6-6v-1l-1-1h0v-1h0l-1-1h0l-1-1h0l-1-1h0l-1-1v0h0q1-1-28-38t-33-41q-4-4-4-1t-3 2q-3 0-3-3-1-2-5-1t-4-1-2-1h-2v-1h1v-1 0h1v-4l1-4h-1 0l-1-1h-2l-1-1-4-1-11-3-6-3h-1 0v-1h0-1 0v-1h0l-1-1v-4h0v-1h1l1-1 5-5q3-5 7-5t9 6q5 6 12 5t8-2 6-1 6 0z" />
    <path fill="#845000" stroke="#845000"
      d="M867 81v-2l2 2 4 3q3 3 10 5t16 2 10 0h2l-3 4q-3 3 2 34t7 43 3 14v4l-1 3-3-8-2-8h-1q-2-1-1 1l-3 1q-2 0-1-1t-2-2h-5l-2-1v7h0l-1-2v-3l-1-2-4-23-4-21-1-1v-1h-1 0l-1-1h-1v-1h-1 0v-1h0-1 0v1h0-1 0v1h0-1v2h2v1l-1 1h0v1h1l7 37 9 43 2 8 1 2v2l1 2v2h0-1v-1h-1v-2l-1-1v-1h-1 0v-1h-1v-1l-1-3h-1l-3-6-4-6v-2l-1-1-2-3-3-4-2-1-2-3q0-2-5-8-4-5-11-5t-11 2l-4 2h0-1 0v1h0-1v-2l1-4-1-1-2-6q-2-6-1-10t1-10l1-5 4-8 4-8 10-19q10-18 9-21l-3-5-2-5z" />
    <path fill="#e6b441" stroke="#e6b441"
      d="M106 130h1v1l2 1q2 0 1 1t4 1 5 1q0 2 3 3 2 0 3-3t4 1l32 41 30 37 1 1-1 1h-1v0l1 1h0v0l1 1h0v0l1 1h1v3l1 1h0l6 10q6 10 10 21l10 19 6 8h0v1h1v1h1v1h0l1 1v1h-2v-1l-2-2-2-1 1 11 6 46 7 58 4 40q2 16 1 17v1h0l-18 6q-17 5-15 6l1 1-5 3-6 2-1 1h-1l-1 1h-1v1h0-1 0l-1 1h-1v-2h1l1-1h1v-1h1v-1h1v-1l2-6v-4l-5-27q-3-26-6-32l-2-6h-1v-1h-1l-4 3-4 1-2-1-2-1h0-1v-1h0v-2h0v-1l1-22-1-40-1-28v-9h2q2-1 1-7t-9-42q-8-36-9-34h-3q-2 0-5-10-4-10-5-9h-1l-1-1q-1 1-4-2-2-2-5-2h-2v-1l-8-22q-8-22-13-24l-5-2h0-1v-1h0-1v-1h0v-3l1-1 3-2zm71 265h0q-1 1 0 0z" />
    <path fill="#815400" stroke="#815400"
      d="M198 230l-8-14h1l1 1 1 1v1h0l1 1h0l5 7 8 8 8 8 15 19q10 12 24 25t25 21 12 9 6 0 12 4 17 3 13-2 7-3h1l1-1h1v-1l1-1v-1l1 1h2v-1l6-5q6-4 13-13 8-9 16-23l13-28 6-15 1-1v-1l1-1v-2l1-1v-2h1v7l-1 1v4 14l1 10 1 6v7l-1 9q0 9-7 20l-15 23q-9 12-16 18t-8 7l-1 1h0-1 0v1h-1 0l1 1 1 1h0-1 0v1h-1 0v1h-1v2l-7 3-8 4-1 1-10 2q-10 1-10 3t-3 3q-2 2-2 5l-3 17-3 31v16h11v1h-3l-3 1h-4l-21 4-18 3h-3l-2 1h-5l-3 1-1 1v2q-1 2-7 1l-6-1-3-1h-3 0l-2-17-3-40-7-58-6-46-1-12 1 1 3 1h1v-1h-1 0v-1h-1 0v-1l-6-8-10-19-13-24z" />
    <path fill="#a37514" stroke="#a37514"
      d="M515 505h9v1h-1l-1 1h-2l-2 1h-1l-1 1-4 1q-5 2-8 6l-8 8q-4 4-5 11t-4 19-2 14v5h42v1h-11l-60 3-50 3h-2l-2 1h-6l-18 1-13-1-1-3q1-1-8-2l-10-1-2-1h-3v-1h3l1-1h1l9-1q9 0 16-3t15-8 12-14q5-7 7-16t1-13-3-10-5-8l-2-3-5-6q-4-4-12-5l-8-1v0l5-1h4l11-1 25-1q15 0 23 5t8 5 11 6l12 7h1l1 1 2 1 8 1q7 2 15 0t18-2z" />
    <path fill="#ba8724" stroke="#ba8724"
      d="M886 486l-3-9 49 4 90 9 40 5v0h-9l-10 1-2 2-3 8q-3 7-2 17t4 18 8 16 11 12l8 4q3 2 10 1t13-7q7-7 10-13t5-17 3-20-3-11l-3-3h-2l-1-1h-2v-1h6v-1h-1 0v-1h4l3 2 5 1h3l2 1 1 1h2l1 1 16 7 19 8 3 2v1h1v1h1v1h1v1h1v1l1 1v1l1 1v4h-1v-1h0-1v-2h-1v-1h0-1 0v-1h0-1 0v-1h0-1 0l-3-3-4-2-1-1h-6 1v1l-1 8-1 44 1 37-2 1h-6v2h1l1 1h2l2 1h0v0l1 1h0v1h1v1h1v1h1v1h1v1h1v1h1l1 1h0-1 0v1h-3v-1h-1 0v1h0-1 0l-1-1h-1l-1-1-6-2-11-3-11-3-24-9q-20-7-71-14t-110-10l-59-3h-1l-37-2-37-2v0h56l58-1h2v-2-22l-3-39-4-26z" />
    <path fill="#946205" stroke="#946205"
      d="M327 483h3v1h2l2 1h1v1h0l1 1h0l-11 2q-11 2-14 9t-3 10-1 10 1 17 7 18 10 12l10 5 6 3h0v1h3l2 1 10 1q10 1 8 2v2l14 1h18l6-1h4v1h0l-1 1v1h-7l-5 1-14 1q-9 1-12 3l-3 2-2 1q-3 0-1 1t-2 2l-3 1v3l-27 6-26 4v1h0-1 0v1h0-1 0v1h0-1 0l-1 1h-1l3 1h2l6 1h6v0l-1 1h-1v1h0l1 1v1h-4l-2 1-5 1h-2l-1 1h-1l-1 1h-2l1 1h1l22 1h21l1 1h1v2h1l3 1h2v1h0-1 0l-5 1-46 5-40 4h-4l-3-1h2l2-1 11-2 13-2 2-1h2l2-1h3v-2h-41q-24 0-28-3t-10-3-9 2l-3 1-1 1h-1l-1 1h-2v1h0v-3h0v-1h1v-1h1v-1h1v-1h1v-1h1v-1h1l2-1h1v-1 0h1l6-2 14-5q10-4 7-5-2-1 6-4t8-9q2-6 2-47v-41h-6l-9 1-4 1h-5l-1-1v0h1v-1h2l1-1h2l1-1 5-1 4-3-1-1-1-1 11-3 12-3h1l14-2 26-3 16-1 3-1h6l5-1z" />
    <path fill="#b47f1f" stroke="#b47f1f"
      d="M1178 183h0l-2 9-4 12v3h-1 0v1h-1 0v1h-1v2h3v1h1v-1h1v-1h-1 0v-1h1v-1h-1 0v-1h1v-2l2-2 1-2 1-1v-1l1-1v-2h2v1h1v4l1 4v-1l1-2 1-4 1-5 1-1h0v-1h1v-1h1v-1h1v-1h1v-1h1v2l-1 2v1l-1 2v1l-8 30q-7 30-12 62t-5 43q0 11 2 12t3 23l1 26 1 2h0v1h1v3h-1 0l-1 1h-1 0-1v-1h-1 0v-1l-3-1-3-2-2-1v-1h-1 0v-1h-1 0v1h-1v2l-1 1v1l-6 30q-6 29-6 37t2 10l4 3h0v0l1 1h0v1h1v1h1l1 1 1 1h1v1h1v1h1v1l1 1v1h-1 0-7l-1-1-11-4q-10-4-17-5t-10-3l-5-4-5-4-13-5-8-2-2-1h-2l-1-1h-1 5l1-1h0l10 1 9-1 1-1 1-2q-1-2 1-12t4-22 3-17v-4h1v-1l1-1v-2l1-3h0v-1h1v-2l2-13 6-35 4-29q2-3 2-15t-2-14l-6-3q-4-1-3-3l1-4-1-2v-4l2-4h0v-1h1v-1l1-1v-1l-1-1v-1 0l1-1h0l27-33 28-34v-1h1v-1 0l1-1zm-2 23q0-2 1 0l-1 1v-1z" />
    <path fill="#fdd95f" stroke="#fdd95f"
      d="M1186 503h0v11q-1 11-4 17t-9 11q-6 6-7 12-2 6-2 24t1 32 9 19l10 11 3 14q1 9-2 15t-9 13q-6 7-20 13t-35 12-57 11-74 8l-37 2v0l4-1h4l30-5q29-4 32-6l3-1h0l-1-1-1-1v0l20-5q20-5 27-9t21-7 15-5 4-1h2l2-1h1v-1l12-4 15-5 4-2h1l1-1h1l1-1h1v-1h1v-3h-1 0v-1h-1 0l-1-1h-1v-1h-1 0l-1-1-9-4q-8-4-41-10t-54-10l-22-3v0l-32-4-32-3-4-1h-5v-1l44 4 75 8 34 4h3v1h3l3 1 15 1q15 2 25 0t11-4l3-1h0v-1h1v-1l1-1v-1l1-1v-3l-1-1v-1l-1-1-6-5-6-4-1-1h-1l-1-1h-1l-1-1h-2 0l-1-1h0l-2-1h-2l-1-1h-1v-2h7l1-1-1-37 1-44 1-8v-1h-1 6l1 1 4 2 3 3h1v1h1v1h1v1h1v1l1 1h0v1h1v-4l-1-1v-1l-1-1v-2l-1-1h0v-1h-1v-2l1-2 2-2 3-3 2-2q2-1 2 1t4 0q4-2 6-6l3-4z" />
    <path fill="#884e00" stroke="#884e00"
      d="M472 620h1l16 1 19 3 4 2h0v0l1 1h0v1h1v1h1v1h1v1h1v1h1v1l7 6 8 7 1 2 1 2v1l-1 1v1l1 1h0v-1h1v2h-1v1h0-1v1h0-1v1h0l-4 1-3 1h-16q-17 1-27 4t-21 5-46 2-43-2q-9-2-10-4 0-2-5-4l-18-5q-14-3-28-2t-16 1q-3 1-3 4v3l-1 1 1 1 1 1-1 1-2 3-3 3-2 1h1v1h1v1h2l1 1h3l2 1h3l3 1h1l1 1h-6l-20-1h-16l-4 1-3 1h-4l-4 1h1v1h0v1l-4 1-3 1v0h-1l-7-2-20-7-15-5v-1h0-1v-1h0-1v-1h0v-3h0v-1h2v-1h1v-1l12-4q12-4 45-11t83-13 56-7h4l-2-1h-3v0l3-1h4l3 1h3v-1l22-2 27-2h5v1h6q5 0 4-1h-1v0l2-1z" />
    <path fill="#885100" stroke="#885100"
      d="M764 617v0l6 1 28 1 68 3 47 3h2l1 2-1 2q-2 0-1 1l1 1 4 5 7 9 6 4 3 1 1 1h1v1h1v1h-1v1h-1l-1 1h-1l-1 1h0-1 0v1l-8 4-8 6-3 7-2 4h-1v1h1v1l1 1 4 3 8 4 9 1h7v1h-8l-59 4-51 4h10l10 1h-8l-69 3-61 3h-35l-58-1h-23l5-1h4l1-1 7-1h6v-1h102q7 0 11-2t7-13q3-10 5-11 2 0 3-4 1-3-5-9t-7-11 10-14 14-14l3-4h5l5-1z" />
    <path fill="#dbb83c" stroke="#dbb83c"
      d="M366 484h5l8 1q8 1 12 5l5 6 2 3 5 8q3 6 3 10t-1 13-7 16q-5 8-12 14t-15 8-16 3l-9 1h-1l-1 1h-3 0l-6-3q-5-1-10-5t-10-13-7-17-1-17 1-10 4-10 13-9l11-2 12-1 18-2z" />
    <path fill="#aa700a" stroke="#aa700a"
      d="M510 660h16v1h-1l-1 1h-1l-1 1h2v1l1 1h0v1h1l1 1h2l2 1h0-1 0v1h1v1h0-1v1h-6l-11 2-10 3q-6 2-7 5l-2 2h-1v1h0l1 2 1 3v3h3l-1 1h-1v1h1v1h-4l-19-1-68-4-78-7-26-4h1l1-1h-1l-1-1h-3l-3-1h-2l-3-1h-1l-2-1h0-1v-1h0-1v-1h2l3-3 2-3 1-1-1-1-1-1 1-1v-3q-1-3 3-4 3-2 16-2t28 3 18 5l5 4q1 2 9 4l44 1q35 0 46-2t21-5 27-3z" />
    <path fill="#875200" stroke="#875200"
      d="M532 598h28-3l-3 1h75l99 2 111 3h12v1l42 1q41 2 87 8t86 16 42 9l3 1h1l1 1h1l1 1h2l1 1h-17l-34-4-75-8-44-4h-4l-17-1-12-1h-2l-47-3q-45-3-68-3t-28-1l-6-1h-99l-135 1-57 2h-1l-2 1v0h-14l-27 2-22 2h-10l-3 1v0h-6l-22 2-17 1v0l-2-1h-3v-1h0l-1-1v-1h-2l-21-1h-22l-1-1h-1l2-1h1l1-1h1l2-1 5-1h2l2-1h2v-2h-1 0l1-1h1v-1l34-4 94-8q61-5 89-4z" />
    <path fill="#fdfc9c" stroke="#fdfc9c"
      d="M686 430h32l25 1 53 1h32l20 3 22 2h1l13 3 13 4h1l1 1h1v1l1 1v1l1 1v4h-2v1h-1 0l-2 1-21 2-20 2h-9l-105-3-106-3q-10 0-15-4t-10-4l-5-1v0l-44-2-45-1-1-1h-2v-2h2v-1h1l18-2 17-2v0l21-1 25-1h30l58-1z" />
    <path fill="#fdfa7e" stroke="#fdfa7e"
      d="M530 670h1l75 1 83 3q9 1 11 3t5 3l2 5 2 5v2l-1 3v2h-1v1h0-1 0v1h0-1 0v1H597l-57-3-43-2v-1h0-1v-1h1l1-1h-3v-3l-1-3v-2h-1v-1h1l2-2q1-3 7-5t10-3 11-2h6v-1z" />
    <path fill="#fcd45b" stroke="#fcd45b"
      d="M170 488l5-5v5h0v1h0l1 1 1 1v3h7v-1h1v-1h1v-1h1v-1l1-1h2v-1l3-2q4-2 12-1t14 2 22 1l17 1-1 2h0-2l-12 3-10 3 1 1 1 1-5 3-4 2h-2l-1 1h-2l-1 1h-1 0l-12 6-16 7-3 3h-1 0v1h0-1 0v1h0-1 0v1h0-1 0v1h0-1 0v1h0-1v3h1v-1h1v-1h1v-1h1l1-1h1v-1h1v-1l6-4 6-3h5l1 1h2l-3 20q-3 20-4 48l-1 27 1 2-2 3h0l-1 1h0-1l-1 1-1 1h0-1 0v1h0-1 0v1h0-1 0v1h0-1 0v1h0-1 0v1h0-1v3h1l1-1h2l1-1h1l3-2 9-1q6 0 10 3t28 3 32-1h9v2h-1l-2 1h-2l-2 1h-2l-13 3-11 2h-2l-2 1h3l2 1h2l40-5 46-5h5v-1h1l17-1 22-2h9l2-1h8v1h-3l-3 1h-5l-57 7q-51 6-83 13t-45 11l-12 5h0-1v1h-1l-1 1h0v3h0v1h1v1h1v1l15 5q14 6 20 7t7 2h1v0l2 1 1 1h2l2 1 5 2 20 10q14 8 28 12t16 4 6 1h3l16 3 19 3h3l5 1h4v1h-16l-37-4q-36-4-71-11t-52-14-21-11-10-12q-4-7-4-19t4-17 10-11 7-19 1-36-8-29-11-14-4-16 2-14 7-10z" />
    <path fill="#d0982e" stroke="#d0982e"
      d="M1110 386v14l-3 17-4 22q-2 9-1 12l-1 2-1 1-9 1-10-1v0l-16-4-17-3h-3l-2-2-2-3-1-1q-2-1 4-24t14-42l13-26 6-8 5-4q3-4 8-6t8 0 6 4l5 10q2 6 2 19t-1 22z" />
    <path fill="#fdfc9a" stroke="#fdfc9a"
      d="M684 574h15l35 1 39 1h4l37 2 37 2h1l18 3 22 5q4 1 3 2h1v1h1l1 1h1v1l1 1v6h-2l-2 1h-2l-22 2-21 1h-12l-111-3-99-2v-1h-1l-2-1h-1l-4-3q-2-2-13-4t-44-3l-35-1h-3v-2l1-1h0v-1h2l2-1 20-2q20-2 69-3t64-2z" />
    <path fill="#7b4800" stroke="#7b4800"
      d="M592 444h14l5 1 10 4q5 3 15 4t106 3 105 3h9v1l43 2q43 2 83 8t79 15 42 9l2 1h2l2 1h-1l-1 1h-3l-4 1h1l1 1v1h1l-3 1h-5l-18-3-15-3v0l-40-5-90-9-49-4h-2l-51-3q-48-3-122-3l-73-1h-3l-21 1h-68l-68 2q-69 3-103 6l-34 3h-3l-3 1h-5l-5 1h-2 0v-1h1v-1h1l-2-1h-2l-3-1h-3l3-1h3l4-1h4l-11-1h-11l2-1h1l1-1h1l4-1 4-2 24-6 27-4h2l81-7 103-8 23-2 15-1z" />
    <path fill="#dfa334" stroke="#dfa334"
      d="M1053 495h9l15 3 18 3h2v1h2l1 1h2l3 3q3 3 3 10t-3 21-5 18-10 12q-6 6-13 7t-10 0-8-5q-6-4-11-13t-8-15-4-18 2-17l3-8 2-2 10-1z" />
    <path fill="#774b01" stroke="#774b01"
      d="M1203 119v-1l6 3 6 3v0h1l1 1h0v1l1 4 2 3h0v1h1v4h-1 0v-1l-1-1-2-1-20 24-19 24h0l-1 1v0h0l-1 1v0h0l-28 34-27 34h0-1v1h0l-1 1h0v1h-1 0v1h-1 0v1h-1 0v1h-1 0v1l-10 11-23 21-21 18q-9 7-12 5t-10 3l-9 4h-1l-2 1-8 1-13-1-5-2h-1l-1-1h0-1 0v-1h0-1 0v-1h1v-1l1-1h0v-1l27-36 28-36-2-5-1-9q0-5-2-9t-1-13 7-16q6-8 12-10t14-6 14-2 10 3q4 2 5 7t2 8 2 8 2 11v6l-1 1v1l-1-2-1-2-2-1-1-1h0v1h-1 0v1h-1v4q1 5 3 6t-2 6q-4 5-11 9l-6 5-4 3q-4 3-6 16l-3 13v8h1l1-1h1v-1h1v-1h1v-1h1v-1h1v-1l23-28q24-28 59-75t36-51-1-5z" />
    <path fill="#865200" stroke="#865200"
      d="M1009 710h13-1l-3 2-1 1h7v0l1 1 1 1h0l-3 1-33 6-29 4-4 1h-4v1h-5l-29 2-98 6-75 3h-72l-116-2q-43-1-114-7l-71-5v-1h-4l-5-1h-3l-19-3-16-3v-1h0-1v-1h-4v-2h-1l-1-1 78 3q77 2 119 5t63 3 55 0h36l1-1h1l1-1h-3l-3-1h-1l-1-1h-20l-21-1h6l5-1h2l1-1h1v-2l40-1 43-1 3-1h3l2-1h-1l-2-1v0h35l101-2 79-1h20l19 3h28z" />
    <path fill="#a37014" stroke="#a37014"
      d="M1217 129l-2-5h1l1 1h0l1 1q1 2 12 5l11 3v-1h1l1 2v2h-1l-8 2-5 2v3l-10 32-18 60q-8 30-11 56l-3 24-1 1-3 13-5 21q-2 9-2 25t0 16v1l-1 3v2h-1 0-4v0h2v-1h1v-3h-1 0v-1h-1v-2l-1-26q-1-23-3-23t-2-12l5-43q4-32 12-62l8-30v-1l1-2v-1l1-2v-2h-1 0v1h-1 0v1h-1 0v1h-1 0v1h-1 0v1h-1v1l-1 5-1 4-1 2v1l-1-4v-4h-1 0l-1-1h-1v1l-1 1v2l-1 2-1 1v1l1 1-2 1h0-1 0v1h-1 0v1h1v1h-1 0v1h1v1h-1 0v1h-1 0v-1h-3v-1l1-1h0v-1h1v-1h1v-1l1-4 3-10 1-7h-1v0l1-1h0v0l1-1h0l19-24 20-24 2 1 1 1v1h1v-4h-1 0v-1l-3-4zm-45 75v-1l1 1h-1z" />
    <path fill="#b98c29" stroke="#b98c29"
      d="M632 470h3l-1 2q-2 1-8 31t-12 41l-8 14-3 4q-1 3-2 2v1h0-1 0v1h1v2h-2l-2 1h3l2 1h8l8 1v0h-25l-45 1-21 1h-42v-5l2-14 4-19q2-8 5-11l7-8q4-4 9-6l4-1 1-1h1l2-1h2l1-1h1v-1l23-4q22-3 28-7l7-5 1-1q2-1 2-4l2-5 2-3 1-1 2-2 2-1v-1h17l21-1z" />
    <path fill="#d9961f" stroke="#d9961f"
      d="M742 619l2-1h10l-3 4-14 14q-10 11-10 14t7 11 5 9q-1 4-3 4-2 1-5 11-4 11-7 13t-11 2h-8v0-1h1v-1h1v-1h1v-2l1-3v-2l-1-5-3-5-5-3q-3-2-11-3t-83-3l-75-1h0l-1-1h0v-1h1v-1h-4l-1-1h-1v-1h-1v-2h-1l-1-1h2l1-1h1v-1l3-1 4-1v-1h1v-1h1v-1h1v-2h-1v1h0l-1-1v-1l1-1v-1l-1-2-1-2-8-7-7-6v-1h-1 0v-1h0-1 0v-1h0-1 0v-1h0-1 0v-1h-2v-2h1l1 1h1v1h1l1 1 16 3q15 3 57 3t58 2 33 1 28-2q11-2 17-6t8-6l5-3 1-1 2-1z" />
    <path fill="#b27f1f" stroke="#b27f1f"
      d="M871 437v0h26l84 6 63 6h4v-2l17 3 16 4v0h0-1v1h-1 0l1 1 1 1 8 2 13 5 5 4 5 4q4 3 10 3t17 5 11 4l1 1h1l1 1h5v-1h1v-1l-1-1v-1h-1 0v-1h-1 0v-1h-1 0l-1-1h-1v-1h-1 0l-1-1h-1v-2h2v1h1l2 1 1 1h1l1 1h1l3 3 4 4 1 1h0v1h1v6l-1 1v1h-1 0v1h-1 0l-1 1-2 2-20 1-19 1h-8v0h-1l-5-1-3-1-2-1h-2v0l-1-1h-1l4-1h3l1-1h1l-2-1h-2l-2-1-42-9q-39-9-79-15t-83-8l-43-2v-1l20-2 21-2h2v-1h1l1-1h1v-2l-1-2v-2l-1-1v-1h-2v-1h-1 0l-13-4-13-3v0z" />
    <path fill="#a0700f" stroke="#a0700f"
      d="M593 571h25l41 1 40 2v0h-15l-64 2q-49 1-69 4l-20 2h-2l-2 1h0-1v3h2l1 1 35 1 44 2q10 1 13 4t4 3l1 1h2l1 1v0h-75l3-1h3-28q-28 0-89 4t-94 8l-34 4h-12l-2-1h-3l1-1h1v-1h1v-1h1v-1h1l26-5q26-4 27-6v-2q-1-1 3-2 3-1 2-2t1-1l2-1 3-2 12-2 14-2h5l4-1h3v-2h1v-1l50-3 60-3h11v-1l21-1 45-1z" />
    <path fill="#6a2a01" stroke="#6a2a01"
      d="M1019 636h2l22 3q22 2 54 9t41 11 9 4l1 1h1v1h1l1 1h1v1h1v3h-1v1h-1l-1 1h-1l-1 1h-1l-4 2-15 5-12 4h-3l-4-1 1-2q2-2-6-2l-6-1h-26l-54 4-28 2v0-1h1v-1l1-1h0v-1h1v-1l1-1h0v-1h1v-1l5-3 10-6q6-3 5-4h1v-1h1v-1h1v-1h1v-4h-1v-1h-1l-6-3-5-3v-1h-1l-1-1h0-1 0v-1h2v-1h1v-1h1v-1l1-1h0v-1l4-1 4-3 3-1z" />
    <path fill="#ac6e03" stroke="#ac6e03"
      d="M916 627l-1-2 12 1 17 1h4v1h5l4 1 32 3 32 4v0h-2l-3 1-4 3-4 1v1h-1v2h-1v1h0-1 0v1h-1l-1 1h1v1h2v1l5 3 6 3 1 1h1v4h-1v1h0-1 0v1h0-1 0v1h0-1 0l-5 4-10 6-5 4h0-1 0v1h0-1v2h-1v1h0-1v2h-1v1h0l-25 3-25 2h-7l-9-1-8-4-4-3-1-1v-1h-1 0v-1h1l2-4 3-7 8-6 8-4v-1h1v-1h2l1-1h1v-1h0v-1h0v-1h0-1 0v-1h-1l-3-1-6-4-8-9-4-5v-1q-1-1 1-1v-2z" />
    <path fill="#8c5d05" stroke="#8c5d05"
      d="M584 471h10v1l-2 1-2 2-1 1-2 2-2 6q0 3-2 4l-1 1-7 5q-6 4-28 7l-23 4h-9q-9 0-17 2t-16 0l-8-1-2-1-1-1h-1l-12-7-11-6-8-5q-9-5-23-5t-25 1l-11 1h-4l-5 1v0h-5l-18 2-12 1h0v-1h-1 0v-1h0-1 0l-2-1h-2v-1h2l3-1h3l34-3q34-3 103-6t68-2 15 1 26-1z" />
    <path fill="#7c4700" stroke="#7c4700"
      d="M1113 684h3v1h-1l-2 1h-2l-4 1-15 5-21 7-27 9-20 5h-3l-4-1h1l3-2h1-13l-28-1q-13-1-19-3t-20 0l-79 1-101 2h-36l-1-1h1v-1h-4l-9-1h-9v-1l61-3 69-3h8l-10-1h-10l51-4 59-4h8v-1l25-2 25-3h0l28-2 54-4h26l6 1q8 1 6 2t-1 2l3 1z" />
    <path fill="#fdf97b" stroke="#fdf97b"
      d="M794 224h0l1 1-8 13q-8 12-8 16 1 4 3 5t2 1l1 5q0 4-5 12t-19 20l-20 19-8 7h-1 0l-1 1-1 1h0l-1 1v2h0-1 0l-1-1h0l-1 1v1l-1 1-14 6-14 6v0h-6l-2 1h-4l-6 1-15-2q-13-2-20-5-6-4-7-17 0-13-2-14l-2-1v-1h0-1 0v-1h0-1 0l-1-1h-1v-2h2l2 1 2 1h5l6 1 1-1h0v2h4l12 2q12 1 22-1t12-2h2l2-1h1v-1h1v-1l-1-1v-1l1 1 1 1h1l11-6q12-6 21-13t25-22 20-22l6-7h1v0l1-1h0l1-1 2-1v-2l1-1z" />
    <path fill="#9d710f" stroke="#9d710f"
      d="M449 424v1l-1 1v1h-1 0v1h0-1 0v1h-1l-4 1-4 2v0h-6l-23 2-18 1h0v-1h1v-1h1v-1h1v-1h1l1-1h1v-1h0l-1-1-4-7-12-15q-9-9-17-12t-14-2-9 5l-5 4-5 8q-5 8-8 20l-3 11-1 1v1h-3v-16q0-17 3-31t3-17q0-2 3-5l2-4 10-2 10-2 2-1 8-4 6-3h5l5-2 12-1h9l2 2 7 4 8 4 9 10q8 10 18 27l11 16 1 3v4z" />
    <path fill="#b2801f" stroke="#b2801f"
      d="M870 583l-18-3 59 3q58 4 110 10t71 14 24 9 11 3 11 3 6 2l1 1h1l1 1h1v-1h1v1h3v-1h1v-1h-2v-1h-1 0v-1h0-1 0v-1h0-1 0v-1h0-1 0v-1h-2v-2h1l1 1h1l1 1h1l1 1h1l1 1 6 4 6 5 1 1v1l1 1v3l-1 1v1l-1 1v1h-1v1h0l-3 1-11 3q-9 2-25 1l-15-2h-3l-3-1v0h7l7-1h-1l-2-1h-1l-1-1h-1l-1-1h-3l-42-10q-39-9-86-15t-87-8l-42-2v0l21-1 22-2 2-1h4v-3l-1-3v-2h-1v-1h-1l-1-1h0-1 0l-3-2-22-5z" />
    <path fill="#946007" stroke="#946007"
      d="M633 338l14 6h2l1 1h2l1 1v0l-7 1q-8 1-10 5l-3 25-2 31q0 10 7 14t37 5 37 1l8 1h0-1 0v1h-1 0-32l-58 1h-27v0-1h1l-1-1h-1v-1h1v-2h2v-1h-1 0l-5-1-15-2-9-2-5-3q-5-2-8-7l-3-17q-1-11 5-36t9-34 7-10q4-2 8-1t19 11 28 15z" />
    <path fill="#cda832" stroke="#cda832"
      d="M395 428l1 1h0l-1 1-1 1h0-1 0v1h0-1 0v1h0-1 0v1h0l-1 1h0l-33 4-32 3h-8v-2l4-11q3-11 8-20l5-8 5-4q3-4 9-5t14 2 17 12q9 9 12 15t4 7z" />
    <path fill="#a57219" stroke="#a57219"
      d="M812 200h0l2 4 3 6 3 3 1 3 1 4v1h2v-1h1l3-4 7-5q4-2 10-1t11 4l6 5 5 5 9 11 9 16q4 9 4 17l2 8 1 9v11l-1 2v1l-1-1-3-1q-2 0-2 2h-1l-1-1-2 3-2 3-2 6-1 5-1-1-1-2-1-2-1 1v1l-1 4v3l-1 4v3h-1v-2l-1-2v-3l-1-2-2-9q-2-7-9-18-6-10-12-14t-16-6-20-2-33 21-31 28l-11 8h0-1 0l-1 1-1 1h0-1v1h0-1 0-1v1h0-1v-1l1-1h0l1-1h1v-1h1l1-1h1v-1h1l8-7 20-19q13-12 19-20t5-12-1-5l-2-1q-2 0-3-5 0-5 4-11t4-9v-2 0l1-1h1v-1h1v-1l1-2 2-2h0v0l1-1h0l9-12 9-12zm-19 27l1 1-2 2-1-1 2-2z" />
    <path fill="#ac7a1b" stroke="#ac7a1b"
      d="M248 683v-1h1v1h3l2 1 55 8 74 11 99 6q80 4 107 4t39 1h11v1l-1 1h0v1h-1l-2 1h-5l-6 1h21l20 1h1l1 1h3l3 1h-1l-1 1h-1l-2 1h-34l-55-1-63-3-119-5-78-2h2v2h2l2 1h0l1 1h0-3l-6-1-16-4q-13-4-28-12l-20-10-5-2-2-1h-2l-1-1-2-1v0l3-1 4-1z" />
    <path fill="#fac950" stroke="#fac950"
      d="M138 218l-8-31h2q2 0 5 3l3 1q1-1 2 1h1q1-1 5 9 3 10 5 10h3q1-1 9 34 9 36 9 42t-1 7-2 0 0 10 1 28 1 39-1 22v1h0v2h0v1h1l2 1 2-1v1q0 2 4 0l4-2h2l2 6q3 6 6 33l5 26v5l-2 5v1h-1 0v1h0-1 0v1h0-1 0v1l-1 1h0l-1 1h0l-2 2-3 2h0v1h0l-1 1v1h-2v1h0l-1 1v1l-1 1v1h2l4-1h1v1h0-1 0l-1 1-1 1h0-1 0v1h0-1 0v1h0-1 0l-3 1h-4v-3l-1-1v-1h-1 0v-1h1v-1l-1-3v-1h0l4-3q3-2 2-10-1-9-9-37-7-28-9-29l-7-8q-5-7-11-24t-15-36l-8-18h-1 0v-2l1-1h0l1 1h1v1l1 1h1l1-2q0-2 2-1t2 1h1v-1l1-1h1l1-1h1v-2l-2-7-6-14-4-11-1-1v-5h0v1h1l1 1 1 1h1v-1l1-2h0l1 1h1v1h1l9 15 10 15 1 1h0v1h1v1l1 1h0v1h1v1h1v1h1v1h1v-6l-1-4-5-29-13-56z" />
    <path fill="#fdf274" stroke="#fdf274"
      d="M754 617h10v0l-5 1h-10l-5 1h-2l-2 1-1 1-5 3-8 7q-6 4-17 5-10 2-28 2t-33-1-58-2-57-3l-16-3-1-1h-1l-1-1h-1 0l-1-1h0-1l-3-2q-3-2-25-2h-22v-1h10l2-1h0l57-2 135-1h89z" />
    <path fill="#d7a234" stroke="#d7a234"
      d="M238 505h6v41q0 41-2 47-1 7-8 10t-6 3q3 1-7 5l-15 6-6 2h-1v-1l1-1 2-2v-29l4-48 3-20h-1l-1-1h-6l-6 3-6 4v1h0-1v1h-1l-1 1h0-1v1h0-1v1h0-1v1h0v-3h0v-1h1v-1h1v-1h1v-1h1v-1h1l3-3 16-8 12-5v0l1 1h5l4-1 9-1z" />
    <path fill="#a16f11" stroke="#a16f11"
      d="M911 91h0-1l-11-1q-9 1-16-1t-10-5l-4-3-2-2v-2l-2-6-4-11q-2-7-1-13t5-15q5-7 10-11 6-4 7-7t6-6l6-4 2-1h8l11 3q4 2 7 6l3 6q0 2-2 3t2 5 7 12 2 16-5 16q-5 9-11 15l-7 6z" />
    <path fill="#bf8c24" stroke="#bf8c24"
      d="M702 298h0v1l1 1v1h-1 0l-1 1-2 1h-2l-12 2-22 1-12-1-2-1h-2v-3l1-1h0l6-14 5-17q0-3-2-5t-4-7l-4-8-4-7-1-12q0-9 3-14t8-9q5-4 14-7t11-2q3 0 11 5l12 10q4 5 5 10t1 11-2 11-6 8-6 8l-3 5v6q0 5 5 15t5 11z" />
    <path fill="#dba533" stroke="#dba533"
      d="M33 155h2l4 2 2 6q1 5 11 4t11-1 3-1l3 3q1 4 4 5 4 2 3 9t-1 9 16 25 20 32q4 9 10 15l7 8 1 1h0v1h0l1 1h0-2v-1h-1v3h-1 0l-1-1h-1v-1h-1 0v-1h-1v3l1 2 1 1 4 11 6 14 2 7v2h-1l-1 1h-1l-1 1v1h-1l-2-1q-1-1-2 1l-1 2h-1l-1-1v-1h-2v-1h-1v2h0l-15-27q-13-27-31-57t-24-31q-6 0-10-4-5-3-3-6 1-3-5-4t-5-3l-5-5q-5-3-6-7v-5q2-1 5-7 3-5 7-5h3v-1h1z" />
    <path fill="#a16d10" stroke="#a16d10"
      d="M469 88h0v-1l-1-1-4 1q-4 3-19 3l-15 1-8-8q-9-7-8-10t-1-8l-5-5q-2 0-1-10t5-18 5-11 4-11q5-6 8-7t10 0 13 5l7 6q0 3 5 6t10 10 6 11 0 12-3 15l-5 14-2 6h-1z" />
    <path fill="#9d6c10" stroke="#9d6c10"
      d="M1244 130h-4v1l1 2h0v1l-12-3-12-5v-1h0l-1-1h-1v0l-6-3-6-3v-2l2-3-1-15q-2-12 1-18t10-12 15-9l8-3 7-5 12-2q6 0 9 5 5 4 4 8 0 4-2 5t-1 2q2 1 5 10 4 9 3 18t-4 14q-3 6-9 11t-10 6-8 2z" />
    <path fill="#916108" stroke="#916108"
      d="M295 237l-2 3h0l-1 2q0 2-2 3l-5 1h-4l1 18 2 29v10h-1 0v-1h0-1 0v-1h0-1 0l-1-1h-1v-2h-2v-1h0-1l-3-4-2-3v-7l-1-5-2-16q-2-12-5-13t-4-4l-5-3q-4-1-10-8-6-6-9-15t-3-13 3-9 2-9 1-7 5-5q4-3 11-4t14 3 14 6 12 10q5 7 6 17t-1 13-1 8-3 8z" />
    <path fill="#9c6a0c" stroke="#9c6a0c"
      d="M296 451h4l1 1v1h-3v1h0-1 0l-2 1-3 1-2 1h0-1 0v1h0-1 0v1h0-1 0v1h0-1 0v1h19q17 0 29-2t23-1 11 1 0 1l2 1v1h-2l-27 4-24 5q0 2-4 3l-4 1h-1l-1 1h-1l-2 1h11l11 1h-4l-4 1h-3l-3 1h3l3 1h2l2 1h0-1 0v1h0l-1 1h0-4l-3 1-16 2-26 2-14 2h0l1-2-16-1-22-1-14-2q-9-1-12 1l-4 2h-2v1h-5v-2l1-1 1-1h0l1-1h1v-2h1v-1l3-2 2-2h0l1-1v0h2l1-1h1l1-1h1l5-3 6-3-2-1 16-6 18-6h3l3 1 6 1 7-1v-2q-1-1 1-1t3-1h1v1l12-1 17-1z" />
    <path fill="#986909" stroke="#986909"
      d="M431 432h8l2 1 1 1h2l1 1 15-1 53-1h39v0l-17 2-18 2h0-1 0l-1 1h-1v2h3l45 2 44 2v0h-14l-15 1-23 2-103 8-81 7h0l-2-2-1-1-10-1q-11-1-23 1t-29 2l-18 1v-1h0-1 0v-1h1v-1h1v-1h1v-1h1l2-1 3-1h2v-1h1l2-1h1v-2h-1 0-4l-16 1-13 1v-1h4l3-1h2l18-3 22-4h3l3-1h3v-1l32-3 33-4h0l18-1 23-2z" />
    <path fill="#facf58" stroke="#facf58"
      d="M1230 263h0v2l1 1-7 16-9 22-1 6v1l1 1h4l1-1h1v1l1 1v2h4v0l-7 16q-8 15-17 38t-13 28l-6 8q-3 2-10 30t-8 36q-1 7 6 12l10 10 4 7 1 2v1h0l-3 4q-2 4-6 6-5 2-4 0t-1-1l-5 4-3 3-1 2 1 2h0v1h1v2h0l-1-1h0-1 0v-1h0-1 0v-1h0-1 0v-1h0l-3-2-19-9-16-7h-1l-2-1h-1l-2-1h-2v-1h27l20-2 2-1 1-1h1v-1h1v-1l1-1v-6h-1v-1h0l-1-2-4-4-4-2h0v-1h-1l-1-1h-1l-2-1h-2v-1h-1 0l-4-3q-2-3-2-11t6-37l6-29v-1l1-1v-1l1-1h0v-1h1v1h1l2 2 3 2 3 1h0v1h1l1 1h0v0h5v-3l1-2v-2-16q0-15 2-24t5-22 3-12l1-1v2l1 2h0v-1h1v-1h1v-1l1-1h0v-1h1v-1l1-1 14-22q14-22 16-23l3-2 1-2 3-1z" />
    <path fill="#642401" stroke="#642401"
      d="M883 127v-1h1v1h1v1h1l1 1h1v1l1 1 4 21 4 23 1 2v3l1 2h0l6 25q5 24 14 48t18 43 16 28q7 9 16 16t17 12 13 6 11 1h7v1h1l-2 1-3 1h-5l-9-1-13-4q-10-3-16-10t-16-18-20-29-21-46l-10-27v-1l-1-1v-4l-1-2-2-8-9-43-7-37h-1 0v-1h1v-2h-2v-1l1-1h0v-1h1z" />
    <path fill="#bb8416" stroke="#bb8416"
      d="M298 679h4l26 4 78 7q52 5 68 5t19 0h4l43 2 57 3h14v1h-6l-7 1-1 1h-4l-5 1h23l58 1h35v1h9l9 1h2l2 1h0-1 0v1h2v1h2l1 1h-2l-3 1h-3l-43 1-40 1h-11l-39-1-107-4q-80-3-99-6t-74-11l-55-8-2-1h-3v-1h0-1 0v-1h-1 0l4-1h4l3-1 4-1h16l20 1z" />
    <path fill="#f7dc6c" stroke="#f7dc6c"
      d="M1312 178h1v3h-1 0v1l-1 1-2 2h-3v2h9-1 0v1h-1 0v1h-1 0l-2 1h-2v4l-3 6q-1 2-8 4-6 1-20 24-15 23-33 55l-17 32h-1v0h-4v-1l-1-1v-2h-2v1h-1 0-3 0-1v-2l1-6 9-22 7-16-1-1v-2l14-24q13-25 21-35t8-15q0-4 1-3 2 0 2-2 0-3 2-2l4 1h1l1-1h1v-1h1v-2h-1l-2-1-1-2-1-2 1-2 1-3h0v-1h6q4 0 6-2t8 3 7 7 2 2zm-24 4v-1h1v1h-1z" />
  </g>
</svg>